<?xml version="1.0" encoding="utf-8"?>
<!-- Generator: Adobe Illustrator 19.0.0, SVG Export Plug-In . SVG Version: 6.00 Build 0)  -->
<svg version="1.1" id="Layer_1" xmlns="http://www.w3.org/2000/svg" xmlns:xlink="http://www.w3.org/1999/xlink" x="0px" y="0px"
	 viewBox="0 0 1512 1080" style="enable-background:new 0 0 1512 1080;" xml:space="preserve">
<style type="text/css">
	.st0{fill:#CCBA4B;}
	.st1{fill:#F1E58A;}
	.st2{fill:#D65B8D;}
	.st3{fill:#F4A8C6;}
	.st4{fill:#7BBC57;}
	.st5{fill:#B1D99F;}
	.st6{fill:#9A6CAD;}
	.st7{fill:#C7ABD1;}
	.st8{fill:#5C96C6;}
	.st9{fill:#96BFE6;}
	.st10{fill:#D59163;}
	.st11{fill:#F3C09D;}
	.st12{fill:#B41F24;}
</style>
<path id="XMLID_3_" class="st0" d="M203.1,99.4C203,99.4,203,99.4,203.1,99.4c27.6,4.7,49.7,26.9,49.7,54.2
	c0,30.3-8.6,54.4-34.5,81.9s-59.1,48.9-73.7,48.9c-14.6,0-47.8-21.3-73.7-48.9c-5.9-6.3-10.9-12.3-15.1-18.3
	c5.1,9.9,12.1,19.7,21.5,29.7c26.3,28,61.5,47.6,76.4,47.6c14.9,0,48.6-21.7,75-49.7c26.3-28,35.1-52.5,35.1-83.4
	C263.7,130.5,235.5,100.1,203.1,99.4z"/>
<path id="XMLID_2_" class="st1" d="M203,99.4c-3.1-0.5-6.2-0.8-9.4-0.9c-31.9-0.7-38.5,18.4-49.1,18.4c-10.6,0-17.3-19.1-49.1-18.4
	c-31.9,0.7-59.1,24.8-59.1,55.1c0,15.7,2.3,29.7,8.1,43.3c2.9,6.8,6.6,13.5,11.3,20.2c4.2,6,9.2,12.1,15.1,18.3
	c25.9,27.5,59.1,48.9,73.7,48.9c14.6,0,47.8-21.3,73.7-48.9s34.5-51.6,34.5-81.9C252.7,126.3,230.7,104,203,99.4z"/>
<path id="XMLID_5_" class="st2" d="M444.1,99.4C444,99.4,444,99.4,444.1,99.4c27.6,4.7,49.7,26.9,49.7,54.2
	c0,30.3-8.6,54.4-34.5,81.9s-59.1,48.9-73.7,48.9c-14.6,0-47.8-21.3-73.7-48.9c-5.9-6.3-10.9-12.3-15.1-18.3
	c5.1,9.9,12.1,19.7,21.5,29.7c26.3,28,61.5,47.6,76.4,47.6c14.9,0,48.6-21.7,75-49.7c26.3-28,35.1-52.5,35.1-83.4
	C504.7,130.5,476.5,100.1,444.1,99.4z"/>
<path id="XMLID_4_" class="st3" d="M444,99.4c-3.1-0.5-6.2-0.8-9.4-0.9c-31.9-0.7-38.5,18.4-49.1,18.4c-10.6,0-17.3-19.1-49.1-18.4
	c-31.9,0.7-59.1,24.8-59.1,55.1c0,15.7,2.3,29.7,8.1,43.3c2.9,6.8,6.6,13.5,11.3,20.2c4.2,6,9.2,12.1,15.1,18.3
	c25.9,27.5,59.1,48.9,73.7,48.9c14.6,0,47.8-21.3,73.7-48.9s34.5-51.6,34.5-81.9C493.7,126.3,471.7,104,444,99.4z"/>
<path id="XMLID_7_" class="st4" d="M685.1,99.4C685,99.4,685,99.4,685.1,99.4c27.6,4.7,49.7,26.9,49.7,54.2
	c0,30.3-8.6,54.4-34.5,81.9c-25.9,27.5-59.1,48.9-73.7,48.9s-47.8-21.3-73.7-48.9c-5.9-6.3-10.9-12.3-15.1-18.3
	c5.1,9.9,12.1,19.7,21.5,29.7c26.3,28,61.5,47.6,76.4,47.6s48.6-21.7,75-49.7c26.3-28,35.1-52.5,35.1-83.4
	C745.7,130.5,717.5,100.1,685.1,99.4z"/>
<path id="XMLID_6_" class="st5" d="M685,99.4c-3.1-0.5-6.2-0.8-9.4-0.9c-31.9-0.7-38.5,18.4-49.1,18.4s-17.3-19.1-49.1-18.4
	c-31.9,0.7-59.1,24.8-59.1,55.1c0,15.7,2.3,29.7,8.1,43.3c2.9,6.8,6.6,13.5,11.3,20.2c4.2,6,9.2,12.1,15.1,18.3
	c25.9,27.5,59.1,48.9,73.7,48.9s47.8-21.3,73.7-48.9c25.9-27.5,34.5-51.6,34.5-81.9C734.7,126.3,712.7,104,685,99.4z"/>
<path id="XMLID_9_" class="st6" d="M926.1,99.4C926,99.4,926,99.4,926.1,99.4c27.6,4.7,49.7,26.9,49.7,54.2
	c0,30.3-8.6,54.4-34.5,81.9c-25.9,27.5-59.1,48.9-73.7,48.9s-47.8-21.3-73.7-48.9c-5.9-6.3-10.9-12.3-15.1-18.3
	c5.1,9.9,12.1,19.7,21.5,29.7c26.3,28,61.5,47.6,76.4,47.6s48.6-21.7,75-49.7c26.3-28,35.1-52.5,35.1-83.4
	C986.7,130.5,958.5,100.1,926.1,99.4z"/>
<path id="XMLID_8_" class="st7" d="M926,99.4c-3.1-0.5-6.2-0.8-9.4-0.9c-31.9-0.7-38.5,18.4-49.1,18.4s-17.3-19.1-49.1-18.4
	c-31.9,0.7-59.1,24.8-59.1,55.1c0,15.7,2.3,29.7,8.1,43.3c2.9,6.8,6.6,13.5,11.3,20.2c4.2,6,9.2,12.1,15.1,18.3
	c25.9,27.5,59.1,48.9,73.7,48.9s47.8-21.3,73.7-48.9c25.9-27.5,34.5-51.6,34.5-81.9C975.7,126.3,953.7,104,926,99.4z"/>
<path id="XMLID_56_" class="st8" d="M1174.1,99.4C1174,99.4,1174,99.4,1174.1,99.4c27.6,4.7,49.7,26.9,49.7,54.2
	c0,30.3-8.6,54.4-34.5,81.9s-59.1,48.9-73.7,48.9s-47.8-21.3-73.7-48.9c-5.9-6.3-10.9-12.3-15.1-18.3c5.1,9.9,12.1,19.7,21.5,29.7
	c26.3,28,61.5,47.6,76.4,47.6c14.9,0,48.6-21.7,75-49.7s35.1-52.5,35.1-83.4C1234.7,130.5,1206.5,100.1,1174.1,99.4z"/>
<path id="XMLID_55_" class="st9" d="M1174,99.4c-3.1-0.5-6.2-0.8-9.4-0.9c-31.9-0.7-38.5,18.4-49.1,18.4s-17.3-19.1-49.1-18.4
	c-31.9,0.7-59.1,24.8-59.1,55.1c0,15.7,2.3,29.7,8.1,43.3c2.9,6.8,6.6,13.5,11.3,20.2c4.2,6,9.2,12.1,15.1,18.3
	c25.9,27.5,59.1,48.9,73.7,48.9s47.8-21.3,73.7-48.9s34.5-51.6,34.5-81.9C1223.7,126.3,1201.7,104,1174,99.4z"/>
<path id="XMLID_54_" class="st10" d="M1415.1,99.4C1415,99.4,1415,99.4,1415.1,99.4c27.6,4.7,49.7,26.9,49.7,54.2
	c0,30.3-8.6,54.4-34.5,81.9s-59.1,48.9-73.7,48.9s-47.8-21.3-73.7-48.9c-5.9-6.3-10.9-12.3-15.1-18.3c5.1,9.9,12.1,19.7,21.5,29.7
	c26.3,28,61.5,47.6,76.4,47.6c14.9,0,48.6-21.7,75-49.7s35.1-52.5,35.1-83.4C1475.7,130.5,1447.5,100.1,1415.1,99.4z"/>
<path id="XMLID_53_" class="st11" d="M1415,99.4c-3.1-0.5-6.2-0.8-9.4-0.9c-31.9-0.7-38.5,18.4-49.1,18.4s-17.3-19.1-49.1-18.4
	c-31.9,0.7-59.1,24.8-59.1,55.1c0,15.7,2.3,29.7,8.1,43.3c2.9,6.8,6.6,13.5,11.3,20.2c4.2,6,9.2,12.1,15.1,18.3
	c25.9,27.5,59.1,48.9,73.7,48.9s47.8-21.3,73.7-48.9s34.5-51.6,34.5-81.9C1464.7,126.3,1442.7,104,1415,99.4z"/>
<path id="XMLID_90_" class="st6" d="M203.1,330.4C203,330.4,203,330.4,203.1,330.4c27.6,4.7,49.7,26.9,49.7,54.2
	c0,30.3-8.6,54.4-34.5,81.9c-25.9,27.5-59.1,48.9-73.7,48.9c-14.6,0-47.8-21.3-73.7-48.9c-5.9-6.3-10.9-12.3-15.1-18.3
	c5.1,9.9,12.1,19.7,21.5,29.7c26.3,28,61.5,47.6,76.4,47.6c14.9,0,48.6-21.7,75-49.7c26.3-28,35.1-52.5,35.1-83.4
	C263.7,361.5,235.5,331.1,203.1,330.4z"/>
<path id="XMLID_89_" class="st7" d="M203,330.4c-3.1-0.5-6.2-0.8-9.4-0.9c-31.9-0.7-38.5,18.4-49.1,18.4
	c-10.6,0-17.3-19.1-49.1-18.4c-31.9,0.7-59.1,24.8-59.1,55.1c0,15.7,2.3,29.7,8.1,43.3c2.9,6.8,6.6,13.5,11.3,20.2
	c4.2,6,9.2,12.1,15.1,18.3c25.9,27.5,59.1,48.9,73.7,48.9c14.6,0,47.8-21.3,73.7-48.9c25.9-27.5,34.5-51.6,34.5-81.9
	C252.7,357.3,230.7,335,203,330.4z"/>
<path id="XMLID_88_" class="st4" d="M444.1,330.4C444,330.4,444,330.4,444.1,330.4c27.6,4.7,49.7,26.9,49.7,54.2
	c0,30.3-8.6,54.4-34.5,81.9c-25.9,27.5-59.1,48.9-73.7,48.9c-14.6,0-47.8-21.3-73.7-48.9c-5.9-6.3-10.9-12.3-15.1-18.3
	c5.1,9.9,12.1,19.7,21.5,29.7c26.3,28,61.5,47.6,76.4,47.6c14.9,0,48.6-21.7,75-49.7c26.3-28,35.1-52.5,35.1-83.4
	C504.7,361.5,476.5,331.1,444.1,330.4z"/>
<path id="XMLID_87_" class="st5" d="M444,330.4c-3.1-0.5-6.2-0.8-9.4-0.9c-31.9-0.7-38.5,18.4-49.1,18.4
	c-10.6,0-17.3-19.1-49.1-18.4c-31.9,0.7-59.1,24.8-59.1,55.1c0,15.7,2.3,29.7,8.1,43.3c2.9,6.8,6.6,13.5,11.3,20.2
	c4.2,6,9.2,12.1,15.1,18.3c25.9,27.5,59.1,48.9,73.7,48.9c14.6,0,47.8-21.3,73.7-48.9c25.9-27.5,34.5-51.6,34.5-81.9
	C493.7,357.3,471.7,335,444,330.4z"/>
<path id="XMLID_86_" class="st0" d="M685.1,330.4C685,330.4,685,330.4,685.1,330.4c27.6,4.7,49.7,26.9,49.7,54.2
	c0,30.3-8.6,54.4-34.5,81.9c-25.9,27.5-59.1,48.9-73.7,48.9s-47.8-21.3-73.7-48.9c-5.9-6.3-10.9-12.3-15.1-18.3
	c5.1,9.9,12.1,19.7,21.5,29.7c26.3,28,61.5,47.6,76.4,47.6s48.6-21.7,75-49.7c26.3-28,35.1-52.5,35.1-83.4
	C745.7,361.5,717.5,331.1,685.1,330.4z"/>
<path id="XMLID_85_" class="st1" d="M685,330.4c-3.1-0.5-6.2-0.8-9.4-0.9c-31.9-0.7-38.5,18.4-49.1,18.4s-17.3-19.1-49.1-18.4
	c-31.9,0.7-59.1,24.8-59.1,55.1c0,15.7,2.3,29.7,8.1,43.3c2.9,6.8,6.6,13.5,11.3,20.2c4.2,6,9.2,12.1,15.1,18.3
	c25.9,27.5,59.1,48.9,73.7,48.9s47.8-21.3,73.7-48.9c25.9-27.5,34.5-51.6,34.5-81.9C734.7,357.3,712.7,335,685,330.4z"/>
<path id="XMLID_84_" class="st10" d="M926.1,330.4C926,330.4,926,330.4,926.1,330.4c27.6,4.7,49.7,26.9,49.7,54.2
	c0,30.3-8.6,54.4-34.5,81.9c-25.9,27.5-59.1,48.9-73.7,48.9s-47.8-21.3-73.7-48.9c-5.9-6.3-10.9-12.3-15.1-18.3
	c5.1,9.9,12.1,19.7,21.5,29.7c26.3,28,61.5,47.6,76.4,47.6s48.6-21.7,75-49.7c26.3-28,35.1-52.5,35.1-83.4
	C986.7,361.5,958.5,331.1,926.1,330.4z"/>
<path id="XMLID_83_" class="st11" d="M926,330.4c-3.1-0.5-6.2-0.8-9.4-0.9c-31.9-0.7-38.5,18.4-49.1,18.4s-17.3-19.1-49.1-18.4
	c-31.9,0.7-59.1,24.8-59.1,55.1c0,15.7,2.3,29.7,8.1,43.3c2.9,6.8,6.6,13.5,11.3,20.2c4.2,6,9.2,12.1,15.1,18.3
	c25.9,27.5,59.1,48.9,73.7,48.9s47.8-21.3,73.7-48.9c25.9-27.5,34.5-51.6,34.5-81.9C975.7,357.3,953.7,335,926,330.4z"/>
<path id="XMLID_82_" class="st2" d="M1174.1,330.4C1174,330.4,1174,330.4,1174.1,330.4c27.6,4.7,49.7,26.9,49.7,54.2
	c0,30.3-8.6,54.4-34.5,81.9c-25.9,27.5-59.1,48.9-73.7,48.9s-47.8-21.3-73.7-48.9c-5.9-6.3-10.9-12.3-15.1-18.3
	c5.1,9.9,12.1,19.7,21.5,29.7c26.3,28,61.5,47.6,76.4,47.6c14.9,0,48.6-21.7,75-49.7s35.1-52.5,35.1-83.4
	C1234.7,361.5,1206.5,331.1,1174.1,330.4z"/>
<path id="XMLID_81_" class="st3" d="M1174,330.4c-3.1-0.5-6.2-0.8-9.4-0.9c-31.9-0.7-38.5,18.4-49.1,18.4s-17.3-19.1-49.1-18.4
	c-31.9,0.7-59.1,24.8-59.1,55.1c0,15.7,2.3,29.7,8.1,43.3c2.9,6.8,6.6,13.5,11.3,20.2c4.2,6,9.2,12.1,15.1,18.3
	c25.9,27.5,59.1,48.9,73.7,48.9s47.8-21.3,73.7-48.9c25.9-27.5,34.5-51.6,34.5-81.9C1223.7,357.3,1201.7,335,1174,330.4z"/>
<path id="XMLID_80_" class="st8" d="M1415.1,330.4C1415,330.4,1415,330.4,1415.1,330.4c27.6,4.7,49.7,26.9,49.7,54.2
	c0,30.3-8.6,54.4-34.5,81.9c-25.9,27.5-59.1,48.9-73.7,48.9s-47.8-21.3-73.7-48.9c-5.9-6.3-10.9-12.3-15.1-18.3
	c5.1,9.9,12.1,19.7,21.5,29.7c26.3,28,61.5,47.6,76.4,47.6c14.9,0,48.6-21.7,75-49.7s35.1-52.5,35.1-83.4
	C1475.7,361.5,1447.5,331.1,1415.1,330.4z"/>
<path id="XMLID_79_" class="st9" d="M1415,330.4c-3.1-0.5-6.2-0.8-9.4-0.9c-31.9-0.7-38.5,18.4-49.1,18.4s-17.3-19.1-49.1-18.4
	c-31.9,0.7-59.1,24.8-59.1,55.1c0,15.7,2.3,29.7,8.1,43.3c2.9,6.8,6.6,13.5,11.3,20.2c4.2,6,9.2,12.1,15.1,18.3
	c25.9,27.5,59.1,48.9,73.7,48.9s47.8-21.3,73.7-48.9c25.9-27.5,34.5-51.6,34.5-81.9C1464.7,357.3,1442.7,335,1415,330.4z"/>
<path id="XMLID_102_" class="st8" d="M203.1,571.4C203,571.4,203,571.4,203.1,571.4c27.6,4.7,49.7,26.9,49.7,54.2
	c0,30.3-8.6,54.4-34.5,81.9s-59.1,48.9-73.7,48.9c-14.6,0-47.8-21.3-73.7-48.9c-5.9-6.3-10.9-12.3-15.1-18.3
	c5.1,9.9,12.1,19.7,21.5,29.7c26.3,28,61.5,47.6,76.4,47.6c14.9,0,48.6-21.7,75-49.7c26.3-28,35.1-52.5,35.1-83.4
	C263.7,602.5,235.5,572.1,203.1,571.4z"/>
<path id="XMLID_101_" class="st9" d="M203,571.4c-3.1-0.5-6.2-0.8-9.4-0.9c-31.9-0.7-38.5,18.4-49.1,18.4
	c-10.6,0-17.3-19.1-49.1-18.4c-31.9,0.7-59.1,24.8-59.1,55.1c0,15.7,2.3,29.7,8.1,43.3c2.9,6.8,6.6,13.5,11.3,20.2
	c4.2,6,9.2,12.1,15.1,18.3c25.9,27.5,59.1,48.9,73.7,48.9c14.6,0,47.8-21.3,73.7-48.9s34.5-51.6,34.5-81.9
	C252.7,598.3,230.7,576,203,571.4z"/>
<path id="XMLID_100_" class="st10" d="M444.1,571.4C444,571.4,444,571.4,444.1,571.4c27.6,4.7,49.7,26.9,49.7,54.2
	c0,30.3-8.6,54.4-34.5,81.9s-59.1,48.9-73.7,48.9c-14.6,0-47.8-21.3-73.7-48.9c-5.9-6.3-10.9-12.3-15.1-18.3
	c5.1,9.9,12.1,19.7,21.5,29.7c26.3,28,61.5,47.6,76.4,47.6c14.9,0,48.6-21.7,75-49.7c26.3-28,35.1-52.5,35.1-83.4
	C504.7,602.5,476.5,572.1,444.1,571.4z"/>
<path id="XMLID_99_" class="st11" d="M444,571.4c-3.1-0.5-6.2-0.8-9.4-0.9c-31.9-0.7-38.5,18.4-49.1,18.4
	c-10.6,0-17.3-19.1-49.1-18.4c-31.9,0.7-59.1,24.8-59.1,55.1c0,15.7,2.3,29.7,8.1,43.3c2.9,6.8,6.6,13.5,11.3,20.2
	c4.2,6,9.2,12.1,15.1,18.3c25.9,27.5,59.1,48.9,73.7,48.9c14.6,0,47.8-21.3,73.7-48.9s34.5-51.6,34.5-81.9
	C493.7,598.3,471.7,576,444,571.4z"/>
<path id="XMLID_98_" class="st2" d="M685.1,571.4C685,571.4,685,571.4,685.1,571.4c27.6,4.7,49.7,26.9,49.7,54.2
	c0,30.3-8.6,54.4-34.5,81.9c-25.9,27.5-59.1,48.9-73.7,48.9s-47.8-21.3-73.7-48.9c-5.9-6.3-10.9-12.3-15.1-18.3
	c5.1,9.9,12.1,19.7,21.5,29.7c26.3,28,61.5,47.6,76.4,47.6s48.6-21.7,75-49.7c26.3-28,35.1-52.5,35.1-83.4
	C745.7,602.5,717.5,572.1,685.1,571.4z"/>
<path id="XMLID_97_" class="st3" d="M685,571.4c-3.1-0.5-6.2-0.8-9.4-0.9c-31.9-0.7-38.5,18.4-49.1,18.4s-17.3-19.1-49.1-18.4
	c-31.9,0.7-59.1,24.8-59.1,55.1c0,15.7,2.3,29.7,8.1,43.3c2.9,6.8,6.6,13.5,11.3,20.2c4.2,6,9.2,12.1,15.1,18.3
	c25.9,27.5,59.1,48.9,73.7,48.9s47.8-21.3,73.7-48.9c25.9-27.5,34.5-51.6,34.5-81.9C734.7,598.3,712.7,576,685,571.4z"/>
<path id="XMLID_96_" class="st4" d="M926.1,571.4C926,571.4,926,571.4,926.1,571.4c27.6,4.7,49.7,26.9,49.7,54.2
	c0,30.3-8.6,54.4-34.5,81.9c-25.9,27.5-59.1,48.9-73.7,48.9s-47.8-21.3-73.7-48.9c-5.9-6.3-10.9-12.3-15.1-18.3
	c5.1,9.9,12.1,19.7,21.5,29.7c26.3,28,61.5,47.6,76.4,47.6s48.6-21.7,75-49.7c26.3-28,35.1-52.5,35.1-83.4
	C986.7,602.5,958.5,572.1,926.1,571.4z"/>
<path id="XMLID_95_" class="st5" d="M926,571.4c-3.1-0.5-6.2-0.8-9.4-0.9c-31.9-0.7-38.5,18.4-49.1,18.4s-17.3-19.1-49.1-18.4
	c-31.9,0.7-59.1,24.8-59.1,55.1c0,15.7,2.3,29.7,8.1,43.3c2.9,6.8,6.6,13.5,11.3,20.2c4.2,6,9.2,12.1,15.1,18.3
	c25.9,27.5,59.1,48.9,73.7,48.9s47.8-21.3,73.7-48.9c25.9-27.5,34.5-51.6,34.5-81.9C975.7,598.3,953.7,576,926,571.4z"/>
<path id="XMLID_94_" class="st6" d="M1174.1,571.4C1174,571.4,1174,571.4,1174.1,571.4c27.6,4.7,49.7,26.9,49.7,54.2
	c0,30.3-8.6,54.4-34.5,81.9s-59.1,48.9-73.7,48.9s-47.8-21.3-73.7-48.9c-5.9-6.3-10.9-12.3-15.1-18.3c5.1,9.9,12.1,19.7,21.5,29.7
	c26.3,28,61.5,47.6,76.4,47.6c14.9,0,48.6-21.7,75-49.7s35.1-52.5,35.1-83.4C1234.7,602.5,1206.5,572.1,1174.1,571.4z"/>
<path id="XMLID_93_" class="st7" d="M1174,571.4c-3.1-0.5-6.2-0.8-9.4-0.9c-31.9-0.7-38.5,18.4-49.1,18.4s-17.3-19.1-49.1-18.4
	c-31.9,0.7-59.1,24.8-59.1,55.1c0,15.7,2.3,29.7,8.1,43.3c2.9,6.8,6.6,13.5,11.3,20.2c4.2,6,9.2,12.1,15.1,18.3
	c25.9,27.5,59.1,48.9,73.7,48.9s47.8-21.3,73.7-48.9s34.5-51.6,34.5-81.9C1223.7,598.3,1201.7,576,1174,571.4z"/>
<path id="XMLID_92_" class="st0" d="M1415.1,571.4C1415,571.4,1415,571.4,1415.1,571.4c27.6,4.7,49.7,26.9,49.7,54.2
	c0,30.3-8.6,54.4-34.5,81.9s-59.1,48.9-73.7,48.9s-47.8-21.3-73.7-48.9c-5.9-6.3-10.9-12.3-15.1-18.3c5.1,9.9,12.1,19.7,21.5,29.7
	c26.3,28,61.5,47.6,76.4,47.6c14.9,0,48.6-21.7,75-49.7s35.1-52.5,35.1-83.4C1475.7,602.5,1447.5,572.1,1415.1,571.4z"/>
<path id="XMLID_91_" class="st1" d="M1415,571.4c-3.1-0.5-6.2-0.8-9.4-0.9c-31.9-0.7-38.5,18.4-49.1,18.4s-17.3-19.1-49.1-18.4
	c-31.9,0.7-59.1,24.8-59.1,55.1c0,15.7,2.3,29.7,8.1,43.3c2.9,6.8,6.6,13.5,11.3,20.2c4.2,6,9.2,12.1,15.1,18.3
	c25.9,27.5,59.1,48.9,73.7,48.9s47.8-21.3,73.7-48.9s34.5-51.6,34.5-81.9C1464.7,598.3,1442.7,576,1415,571.4z"/>
<path id="XMLID_21_" class="st2" d="M203.1,802.4C203,802.4,203,802.4,203.1,802.4c27.6,4.7,49.7,26.9,49.7,54.2
	c0,30.3-8.6,54.4-34.5,81.9s-59.1,48.9-73.7,48.9c-14.6,0-47.8-21.3-73.7-48.9c-5.9-6.3-10.9-12.3-15.1-18.3
	c5.1,9.9,12.1,19.7,21.5,29.7c26.3,28,61.5,47.6,76.4,47.6c14.9,0,48.6-21.7,75-49.7c26.3-28,35.1-52.5,35.1-83.4
	C263.7,833.5,235.5,803.1,203.1,802.4z"/>
<path id="XMLID_20_" class="st3" d="M203,802.4c-3.1-0.5-6.2-0.8-9.4-0.9c-31.9-0.7-38.5,18.4-49.1,18.4
	c-10.6,0-17.3-19.1-49.1-18.4c-31.9,0.7-59.1,24.8-59.1,55.1c0,15.7,2.3,29.7,8.1,43.3c2.9,6.8,6.6,13.5,11.3,20.2
	c4.2,6,9.2,12.1,15.1,18.3c25.9,27.5,59.1,48.9,73.7,48.9c14.6,0,47.8-21.3,73.7-48.9s34.5-51.6,34.5-81.9
	C252.7,829.3,230.7,807,203,802.4z"/>
<path id="XMLID_19_" class="st6" d="M444.1,802.4C444,802.4,444,802.4,444.1,802.4c27.6,4.7,49.7,26.9,49.7,54.2
	c0,30.3-8.6,54.4-34.5,81.9s-59.1,48.9-73.7,48.9c-14.6,0-47.8-21.3-73.7-48.9c-5.9-6.3-10.9-12.3-15.1-18.3
	c5.1,9.9,12.1,19.7,21.5,29.7c26.3,28,61.5,47.6,76.4,47.6c14.9,0,48.6-21.7,75-49.7c26.3-28,35.1-52.5,35.1-83.4
	C504.7,833.5,476.5,803.1,444.1,802.4z"/>
<path id="XMLID_18_" class="st7" d="M444,802.4c-3.1-0.5-6.2-0.8-9.4-0.9c-31.9-0.7-38.5,18.4-49.1,18.4
	c-10.6,0-17.3-19.1-49.1-18.4c-31.9,0.7-59.1,24.8-59.1,55.1c0,15.7,2.3,29.7,8.1,43.3c2.9,6.8,6.6,13.5,11.3,20.2
	c4.2,6,9.2,12.1,15.1,18.3c25.9,27.5,59.1,48.9,73.7,48.9c14.6,0,47.8-21.3,73.7-48.9s34.5-51.6,34.5-81.9
	C493.7,829.3,471.7,807,444,802.4z"/>
<path id="XMLID_17_" class="st8" d="M685.1,802.4C685,802.4,685,802.4,685.1,802.4c27.6,4.7,49.7,26.9,49.7,54.2
	c0,30.3-8.6,54.4-34.5,81.9c-25.9,27.5-59.1,48.9-73.7,48.9s-47.8-21.3-73.7-48.9c-5.9-6.3-10.9-12.3-15.1-18.3
	c5.1,9.9,12.1,19.7,21.5,29.7c26.3,28,61.5,47.6,76.4,47.6s48.6-21.7,75-49.7c26.3-28,35.1-52.5,35.1-83.4
	C745.7,833.5,717.5,803.1,685.1,802.4z"/>
<path id="XMLID_16_" class="st9" d="M685,802.4c-3.1-0.5-6.2-0.8-9.4-0.9c-31.9-0.7-38.5,18.4-49.1,18.4s-17.3-19.1-49.1-18.4
	c-31.9,0.7-59.1,24.8-59.1,55.1c0,15.7,2.3,29.7,8.1,43.3c2.9,6.8,6.6,13.5,11.3,20.2c4.2,6,9.2,12.1,15.1,18.3
	c25.9,27.5,59.1,48.9,73.7,48.9s47.8-21.3,73.7-48.9c25.9-27.5,34.5-51.6,34.5-81.9C734.7,829.3,712.7,807,685,802.4z"/>
<path id="XMLID_15_" class="st0" d="M926.1,802.4C926,802.4,926,802.4,926.1,802.4c27.6,4.7,49.7,26.9,49.7,54.2
	c0,30.3-8.6,54.4-34.5,81.9c-25.9,27.5-59.1,48.9-73.7,48.9s-47.8-21.3-73.7-48.9c-5.9-6.3-10.9-12.3-15.1-18.3
	c5.1,9.9,12.1,19.7,21.5,29.7c26.3,28,61.5,47.6,76.4,47.6s48.6-21.7,75-49.7c26.3-28,35.1-52.5,35.1-83.4
	C986.7,833.5,958.5,803.1,926.1,802.4z"/>
<path id="XMLID_14_" class="st1" d="M926,802.4c-3.1-0.5-6.2-0.8-9.4-0.9c-31.9-0.7-38.5,18.4-49.1,18.4s-17.3-19.1-49.1-18.4
	c-31.9,0.7-59.1,24.8-59.1,55.1c0,15.7,2.3,29.7,8.1,43.3c2.9,6.8,6.6,13.5,11.3,20.2c4.2,6,9.2,12.1,15.1,18.3
	c25.9,27.5,59.1,48.9,73.7,48.9s47.8-21.3,73.7-48.9c25.9-27.5,34.5-51.6,34.5-81.9C975.7,829.3,953.7,807,926,802.4z"/>
<path id="XMLID_13_" class="st10" d="M1174.1,802.4C1174,802.4,1174,802.4,1174.1,802.4c27.6,4.7,49.7,26.9,49.7,54.2
	c0,30.3-8.6,54.4-34.5,81.9s-59.1,48.9-73.7,48.9s-47.8-21.3-73.7-48.9c-5.9-6.3-10.9-12.3-15.1-18.3c5.1,9.9,12.1,19.7,21.5,29.7
	c26.3,28,61.5,47.6,76.4,47.6c14.9,0,48.6-21.7,75-49.7s35.1-52.5,35.1-83.4C1234.7,833.5,1206.5,803.1,1174.1,802.4z"/>
<path id="XMLID_12_" class="st11" d="M1174,802.4c-3.1-0.5-6.2-0.8-9.4-0.9c-31.9-0.7-38.5,18.4-49.1,18.4s-17.3-19.1-49.1-18.4
	c-31.9,0.7-59.1,24.8-59.1,55.1c0,15.7,2.3,29.7,8.1,43.3c2.9,6.8,6.6,13.5,11.3,20.2c4.2,6,9.2,12.1,15.1,18.3
	c25.9,27.5,59.1,48.9,73.7,48.9s47.8-21.3,73.7-48.9s34.5-51.6,34.5-81.9C1223.7,829.3,1201.7,807,1174,802.4z"/>
<path id="XMLID_11_" class="st4" d="M1415.1,802.4C1415,802.4,1415,802.4,1415.1,802.4c27.6,4.7,49.7,26.9,49.7,54.2
	c0,30.3-8.6,54.4-34.5,81.9s-59.1,48.9-73.7,48.9s-47.8-21.3-73.7-48.9c-5.9-6.3-10.9-12.3-15.1-18.3c5.1,9.9,12.1,19.7,21.5,29.7
	c26.3,28,61.5,47.6,76.4,47.6c14.9,0,48.6-21.7,75-49.7s35.1-52.5,35.1-83.4C1475.7,833.5,1447.5,803.1,1415.1,802.4z"/>
<path id="XMLID_10_" class="st5" d="M1415,802.4c-3.1-0.5-6.2-0.8-9.4-0.9c-31.9-0.7-38.5,18.4-49.1,18.4s-17.3-19.1-49.1-18.4
	c-31.9,0.7-59.1,24.8-59.1,55.1c0,15.7,2.3,29.7,8.1,43.3c2.9,6.8,6.6,13.5,11.3,20.2c4.2,6,9.2,12.1,15.1,18.3
	c25.9,27.5,59.1,48.9,73.7,48.9s47.8-21.3,73.7-48.9s34.5-51.6,34.5-81.9C1464.7,829.3,1442.7,807,1415,802.4z"/>
<g id="XMLID_1_">
	<path id="XMLID_22_" class="st12" d="M110.1,167.3h-5l-4.6,7.9c-1.3,2.2-2.1,3.7-3.1,5.7h-0.1c-0.9-1.8-1.9-3.5-3.1-5.7l-4.5-7.9
		h-5.1l9.9,16.7L84.3,201h5l4.1-7.4c1.8-3,2.7-4.8,3.6-6.7h0.1c1.1,2,2.2,3.8,3.9,6.7l4.3,7.5h5.1l-10.5-17.3L110.1,167.3z"/>
	<path id="XMLID_36_" class="st12" d="M127.6,166.7c-9,0-15.7,7-15.7,17.7c0,10.2,6.3,17.1,15.2,17.1c8.6,0,15.7-6.2,15.7-17.8
		C142.7,173.8,136.8,166.7,127.6,166.7z M127.3,198c-6.9,0-10.8-6.5-10.8-13.7c0-7.4,3.6-14.1,10.8-14.1c7.3,0,10.8,7,10.8,13.7
		C138.1,191.6,134.2,198,127.3,198z"/>
	<path id="XMLID_37_" class="st12" d="M170.3,167.3h-5l-4.6,7.9c-1.3,2.2-2.1,3.7-3.1,5.7h-0.1c-0.9-1.8-1.9-3.5-3.1-5.7l-4.5-7.9
		h-5.1l9.9,16.7L144.5,201h5l4.1-7.4c1.8-3,2.7-4.8,3.6-6.7h0.1c1.1,2,2.2,3.8,3.9,6.7l4.3,7.5h5.1L160,183.7L170.3,167.3z"/>
	<path id="XMLID_40_" class="st12" d="M187.8,166.7c-9,0-15.7,7-15.7,17.7c0,10.2,6.3,17.1,15.2,17.1c8.6,0,15.7-6.2,15.7-17.8
		C202.9,173.8,197,166.7,187.8,166.7z M187.5,198c-6.9,0-10.8-6.5-10.8-13.7c0-7.4,3.6-14.1,10.8-14.1c7.3,0,10.8,7,10.8,13.7
		C198.3,191.6,194.4,198,187.5,198z"/>
</g>
<g id="XMLID_24_">
	<path id="XMLID_25_" class="st12" d="M369.9,181l-13.2-19.4l12.2-14.3h-5.4l-10.3,12.7c-0.9,1.1-1.8,2.3-2.7,3.6h-0.1v-16.3h-4.4
		V181h4.4v-12.9l3.2-3.7l11.1,16.6H369.9z"/>
	<rect id="XMLID_27_" x="373.2" y="147.3" class="st12" width="4.4" height="33.7"/>
	<path id="XMLID_426_" class="st12" d="M403.9,171.8c0-5-2.9-7.7-8.6-9.9c-4.7-1.8-6.7-3.4-6.7-6.5c0-2.3,1.8-5.1,6.4-5.1
		c3.1,0,5.3,1,6.4,1.6l1.2-3.6c-1.5-0.9-4-1.6-7.5-1.6c-6.6,0-10.9,3.9-10.9,9.2c0,4.8,3.4,7.6,8.9,9.6c4.6,1.8,6.4,3.5,6.4,6.7
		c0,3.4-2.6,5.8-7.1,5.8c-3,0-5.9-1-7.8-2.2l-1.1,3.7c1.8,1.2,5.4,2.1,8.6,2.1C400,181.5,403.9,177,403.9,171.8z"/>
	<path id="XMLID_427_" class="st12" d="M419.9,161.9c-4.7-1.8-6.7-3.4-6.7-6.5c0-2.3,1.8-5.1,6.4-5.1c3.1,0,5.3,1,6.4,1.6l1.2-3.6
		c-1.5-0.9-4-1.6-7.5-1.6c-6.6,0-10.9,3.9-10.9,9.2c0,4.8,3.4,7.6,8.9,9.6c4.6,1.8,6.4,3.5,6.4,6.7c0,3.4-2.6,5.8-7.1,5.8
		c-3,0-5.9-1-7.8-2.2l-1.1,3.7c1.8,1.2,5.4,2.1,8.6,2.1c8,0,11.8-4.5,11.8-9.7C428.5,166.8,425.6,164.1,419.9,161.9z"/>
	<path id="XMLID_428_" class="st12" d="M383.8,207.3l-6,16.3c-1.5,4.3-2.7,8-3.6,11.4h-0.1c-0.9-3.5-2-7.2-3.4-11.4l-5.8-16.3h-5.6
		L357,241h4.1l0.9-14.5c0.3-5.1,0.5-10.7,0.6-14.9h0.1c0.9,4,2.3,8.4,3.9,13.1l5.5,16.1h3.3l6-16.4c1.7-4.7,3.1-8.9,4.3-12.8h0.2
		c-0.1,4.2,0.3,9.9,0.5,14.6l0.9,14.8h4.3l-2.1-33.7H383.8z"/>
	<polygon id="XMLID_429_" class="st12" points="402.5,225.2 415.6,225.2 415.6,221.6 402.5,221.6 402.5,210.9 416.3,210.9 
		416.3,207.3 398.1,207.3 398.1,241 417.1,241 417.1,237.3 402.5,237.3 	"/>
</g>
<g id="XMLID_28_">
	<polygon id="XMLID_29_" class="st12" points="843.3,182 847.7,182 847.7,148.3 843.3,148.3 843.3,162.4 827,162.4 827,148.3 
		822.7,148.3 822.7,182 827,182 827,166.2 843.3,166.2 	"/>
	<path id="XMLID_30_" class="st12" d="M880.1,148.3h-4.4v20c0,7.5-3.2,10.8-8.2,10.8c-4.5,0-7.9-3.2-7.9-10.8v-20h-4.4v19.9
		c0,10.5,5.2,14.4,12.1,14.4c7.3,0,12.8-4.3,12.8-14.6V148.3z"/>
	<path id="XMLID_416_" class="st12" d="M902.2,164.3v3.5h6.9v10.1c-1,0.5-3,0.9-5.8,0.9c-7.9,0-13-5.1-13-13.6
		c0-8.5,5.3-13.6,13.6-13.6c3.4,0,5.7,0.6,7.5,1.5l1-3.6c-1.5-0.7-4.5-1.6-8.4-1.6c-11.3,0-18.2,7.4-18.3,17.4
		c0,5.3,1.8,9.8,4.7,12.6c3.3,3.1,7.5,4.5,12.6,4.5c4.6,0,8.4-1.1,10.4-1.9v-16.2H902.2z"/>
	<path id="XMLID_417_" class="st12" d="M864.8,208.3l-6,16.3c-1.5,4.3-2.7,8-3.5,11.4h-0.2c-0.8-3.5-2-7.2-3.4-11.4l-5.8-16.3h-5.5
		L838,242h4.2l0.9-14.5c0.3-5.1,0.5-10.7,0.6-14.9h0.1c0.9,4,2.3,8.4,3.9,13.1l5.5,16.1h3.3l6-16.4c1.7-4.7,3.1-8.9,4.3-12.8h0.2
		c0,4.2,0.3,9.9,0.5,14.6l0.9,14.8h4.3l-2.1-33.7H864.8z"/>
	<polygon id="XMLID_418_" class="st12" points="883.5,226.2 896.6,226.2 896.6,222.6 883.5,222.6 883.5,211.9 897.3,211.9 
		897.3,208.3 879.1,208.3 879.1,242 898.1,242 898.1,238.3 883.5,238.3 	"/>
</g>
<g id="XMLID_277_">
	<path id="XMLID_278_" class="st12" d="M324.6,400.3c-3,0-5.8-1-7.8-2.2l-1.1,3.7c1.8,1.2,5.4,2.1,8.6,2.1c8,0,11.8-4.5,11.8-9.7
		c0-5-2.9-7.7-8.6-9.9c-4.7-1.8-6.7-3.4-6.7-6.5c0-2.3,1.8-5.1,6.4-5.1c3,0,5.3,1,6.4,1.6l1.2-3.6c-1.5-0.9-4-1.6-7.5-1.6
		c-6.5,0-10.9,3.9-10.9,9.2c0,4.8,3.4,7.6,8.9,9.6c4.6,1.8,6.4,3.5,6.4,6.7C331.7,398,329.1,400.3,324.6,400.3z"/>
	<path id="XMLID_279_" class="st12" d="M375.7,369.7l-4.5,17c-1,4.2-2,8-2.7,11.7h-0.1c-0.5-3.6-1.4-7.6-2.4-11.6l-4.1-17.1h-4.6
		l-4.5,17c-1.2,4.4-2.2,8.4-2.8,11.7h-0.1c-0.6-3.3-1.5-7.5-2.5-11.7l-4-17.1H339l8.6,33.7h4.6l4.8-17.6c1.3-4.4,2-7.7,2.6-11h0.1
		c0.5,3.4,1.2,6.7,2.2,11l4.3,17.6h4.6l9.5-33.7H375.7z"/>
	<polygon id="XMLID_357_" class="st12" points="388.7,387.6 401.8,387.6 401.8,384 388.7,384 388.7,373.4 402.6,373.4 402.6,369.7 
		384.4,369.7 384.4,403.4 403.3,403.4 403.3,399.8 388.7,399.8 	"/>
	<polygon id="XMLID_358_" class="st12" points="427.9,399.8 413.3,399.8 413.3,387.6 426.4,387.6 426.4,384 413.3,384 413.3,373.4 
		427.2,373.4 427.2,369.7 409,369.7 409,403.4 427.9,403.4 	"/>
	<polygon id="XMLID_359_" class="st12" points="430.5,369.7 430.5,373.4 440.8,373.4 440.8,403.4 445.2,403.4 445.2,373.4 
		455.5,373.4 455.5,369.7 	"/>
	<polygon id="XMLID_360_" class="st12" points="339,443.8 322.7,443.8 322.7,429.7 318.3,429.7 318.3,463.4 322.7,463.4 
		322.7,447.6 339,447.6 339,463.4 343.4,463.4 343.4,429.7 339,429.7 	"/>
	<polygon id="XMLID_361_" class="st12" points="355.3,447.6 368.4,447.6 368.4,444 355.3,444 355.3,433.4 369.1,433.4 369.1,429.7 
		350.9,429.7 350.9,463.4 369.9,463.4 369.9,459.8 355.3,459.8 	"/>
	<path id="XMLID_364_" class="st12" d="M384.4,429.7L373,463.4h4.5l3.5-10.6h12l3.6,10.6h4.7l-11.5-33.7H384.4z M381.9,449.4
		l3.3-9.8c0.7-2.1,1.2-4.1,1.7-6.1h0.1c0.5,2,1,4,1.8,6.2l3.3,9.7H381.9z"/>
	<path id="XMLID_367_" class="st12" d="M420.5,447.4v-0.2c3.6-1.2,6.4-4.1,6.4-8.6c0-2.6-1-4.9-2.7-6.4c-2.1-1.9-5.1-2.8-9.8-2.8
		c-3,0-6.2,0.3-8.4,0.7v33.3h4.3v-14.6h4.1c4,0.2,5.8,1.9,6.8,6.6c1,4.2,1.7,7.1,2.3,8.1h4.5c-0.7-1.3-1.5-4.6-2.6-9.3
		C424.7,450.7,423.1,448.3,420.5,447.4z M414.9,445.5h-4.5v-12.3c0.7-0.2,2.2-0.4,4.3-0.4c4.6,0.1,7.8,2,7.8,6.3
		C422.5,443,419.6,445.5,414.9,445.5z"/>
	<polygon id="XMLID_368_" class="st12" points="429.6,433.4 439.9,433.4 439.9,463.4 444.3,463.4 444.3,433.4 454.6,433.4 
		454.6,429.7 429.6,429.7 	"/>
</g>
<g id="XMLID_34_">
	<polygon id="XMLID_41_" class="st12" points="1069.2,168.3 1064.8,168.3 1064.8,202 1083.6,202 1083.6,198.3 1069.2,198.3 	"/>
	<path id="XMLID_383_" class="st12" d="M1100.1,167.7c-9,0-15.7,7-15.7,17.7c0,10.2,6.3,17.1,15.2,17.1c8.6,0,15.7-6.2,15.7-17.8
		C1115.3,174.8,1109.3,167.7,1100.1,167.7z M1099.9,199c-6.9,0-10.8-6.5-10.8-13.7c0-7.4,3.6-14.1,10.8-14.1c7.3,0,10.8,7,10.8,13.7
		C1110.7,192.6,1106.8,199,1099.9,199z"/>
	<path id="XMLID_384_" class="st12" d="M1134.8,184.9c-1.5,4.4-2.9,8.7-3.9,12.6h-0.1c-0.9-4-2.2-8.1-3.6-12.6l-5.3-16.6h-4.7
		l11,33.7h4.8l12.1-33.7h-4.7L1134.8,184.9z"/>
	<polygon id="XMLID_385_" class="st12" points="1153.2,198.3 1153.2,186.2 1166.3,186.2 1166.3,182.6 1153.2,182.6 1153.2,171.9 
		1167,171.9 1167,168.3 1148.8,168.3 1148.8,202 1167.8,202 1167.8,198.3 	"/>
</g>
<g id="XMLID_283_">
	<path id="XMLID_284_" class="st12" d="M107.7,398.4c2.8,0,5.2,0.6,6.8,1.4l1-3.6c-1.2-0.6-3.8-1.5-8-1.5
		c-10.5,0-17.6,7.2-17.6,17.7c0,11.1,7.2,17.1,16.7,17.1c4.1,0,7.3-0.8,8.9-1.6l-0.9-3.5c-1.8,0.9-4.5,1.4-7.1,1.4
		c-8.2,0-13-5.3-13-13.6C94.5,403.4,99.8,398.4,107.7,398.4z"/>
	<path id="XMLID_289_" class="st12" d="M141.3,415.2c0,7.5-3.2,10.8-8.2,10.8c-4.5,0-7.9-3.2-7.9-10.8v-20h-4.4v19.9
		c0,10.5,5.2,14.4,12.1,14.4c7.3,0,12.8-4.3,12.8-14.6v-19.7h-4.4V415.2z"/>
	<polygon id="XMLID_300_" class="st12" points="149.4,399 159.7,399 159.7,429 164.1,429 164.1,399 174.4,399 174.4,395.3 
		149.4,395.3 	"/>
	<polygon id="XMLID_301_" class="st12" points="182.5,425.3 182.5,413.2 195.6,413.2 195.6,409.6 182.5,409.6 182.5,398.9 
		196.3,398.9 196.3,395.3 178.1,395.3 178.1,429 197.1,429 197.1,425.3 	"/>
</g>
<g id="XMLID_274_">
	<path id="XMLID_287_" class="st12" d="M617.8,385.4L617.8,385.4c3.6-1.4,5.7-4.3,5.7-7.5c0-2.6-1-4.6-2.8-6
		c-2.1-1.7-4.9-2.5-9.3-2.5c-3,0-6.1,0.3-8,0.7v33.2c1.5,0.2,3.8,0.4,6.8,0.4c5.5,0,9.3-1,11.7-3.1c1.7-1.7,2.9-3.9,2.9-6.8
		C624.7,388.8,621,386.2,617.8,385.4z M607.8,373.1c0.7-0.1,1.9-0.3,3.9-0.3c4.4,0,7.4,1.6,7.4,5.5c0,3.3-2.7,5.7-7.3,5.7h-4V373.1z
		 M611.5,400.3c-1.6,0-2.8-0.1-3.7-0.2v-12.9h3.6c4.8,0,8.7,1.9,8.7,6.5C620.1,398.7,616,400.3,611.5,400.3z"/>
	<polygon id="XMLID_313_" class="st12" points="649.5,399.8 634.9,399.8 634.9,387.6 648,387.6 648,384 634.9,384 634.9,373.4 
		648.8,373.4 648.8,369.7 630.6,369.7 630.6,403.4 649.5,403.4 	"/>
	<path id="XMLID_314_" class="st12" d="M600.3,429.7l-6,16.3c-1.5,4.3-2.7,8-3.6,11.4h-0.1c-0.9-3.5-2-7.2-3.4-11.4l-5.8-16.3h-5.6
		l-2.4,33.7h4.1l0.9-14.5c0.3-5.1,0.5-10.7,0.6-14.9h0.1c0.9,4,2.3,8.4,3.9,13.1l5.5,16.1h3.3l6-16.4c1.7-4.7,3.1-8.9,4.3-12.8h0.2
		c-0.1,4.2,0.3,9.9,0.5,14.6l0.9,14.8h4.3l-2.1-33.7H600.3z"/>
	<rect id="XMLID_315_" x="614.7" y="429.7" class="st12" width="4.4" height="33.7"/>
	<path id="XMLID_316_" class="st12" d="M647.8,443.8c0,5.3,0.1,9.4,0.5,13.9l-0.1,0.1c-1.6-3.5-3.5-7-6.1-11l-10.8-17.1h-4.8v33.7
		h4.1V449c0-5.6-0.1-9.7-0.4-13.9l0.2,0c1.7,3.6,4,7.5,6.3,11.3l10.7,17.1h4.4v-33.7h-4.1V443.8z"/>
	<polygon id="XMLID_317_" class="st12" points="663.9,459.8 663.9,447.6 677,447.6 677,444 663.9,444 663.9,433.4 677.7,433.4 
		677.7,429.7 659.5,429.7 659.5,463.4 678.5,463.4 678.5,459.8 	"/>
</g>
<g id="XMLID_338_">
	<path id="XMLID_339_" class="st12" d="M581,148.4h-10.3v-3.7h25v3.7h-10.3v30H581V148.4z"/>
	<path id="XMLID_341_" class="st12" d="M599.5,145.2c2.2-0.5,5.4-0.7,8.4-0.7c4.7,0,7.7,0.9,9.8,2.8c1.7,1.5,2.6,3.8,2.6,6.4
		c0,4.5-2.8,7.4-6.4,8.6v0.2c2.6,0.9,4.2,3.3,5,6.8c1.1,4.7,1.9,8,2.6,9.3h-4.5c-0.6-1-1.3-3.9-2.3-8.1c-1-4.7-2.8-6.4-6.8-6.6h-4.1
		v14.6h-4.4V145.2z M603.8,160.5h4.5c4.7,0,7.6-2.6,7.6-6.4c0-4.4-3.1-6.3-7.8-6.3c-2.1,0-3.6,0.2-4.3,0.4V160.5z"/>
	<path id="XMLID_344_" class="st12" d="M630.7,144.7v20c0,7.6,3.4,10.8,7.9,10.8c5,0,8.2-3.3,8.2-10.8v-20h4.4v19.7
		c0,10.4-5.5,14.6-12.8,14.6c-6.9,0-12.1-4-12.1-14.4v-19.9H630.7z"/>
	<path id="XMLID_346_" class="st12" d="M676.2,162.6h-13.1v12.2h14.6v3.7h-19v-33.7h18.2v3.7h-13.9V159h13.1V162.6z"/>
	<path id="XMLID_348_" class="st12" d="M574.7,204.7h4.4v30.1h14.4v3.7h-18.8V204.7z"/>
	<path id="XMLID_350_" class="st12" d="M625.1,221.2c0,11.6-7.1,17.8-15.7,17.8c-8.9,0-15.2-6.9-15.2-17.1
		c0-10.7,6.7-17.7,15.7-17.7C619.2,204.2,625.1,211.2,625.1,221.2z M599,221.8c0,7.2,3.9,13.7,10.8,13.7c6.9,0,10.8-6.4,10.8-14
		c0-6.7-3.5-13.7-10.8-13.7C602.6,207.7,599,214.4,599,221.8z"/>
	<path id="XMLID_353_" class="st12" d="M638.2,238.4l-11-33.7h4.7l5.3,16.6c1.5,4.6,2.7,8.7,3.6,12.6h0.1c0.9-3.9,2.4-8.2,3.9-12.6
		l5.7-16.7h4.7L643,238.4H638.2z"/>
	<path id="XMLID_355_" class="st12" d="M676.1,222.6H663v12.2h14.6v3.7h-19v-33.7h18.2v3.7H663V219h13.1V222.6z"/>
</g>
<g id="XMLID_31_">
	<path id="XMLID_32_" class="st12" d="M1314.5,151.4c2.8,0,5.2,0.6,6.8,1.4l1.1-3.6c-1.2-0.6-3.8-1.5-8-1.5
		c-10.5,0-17.6,7.2-17.6,17.7c0,11.1,7.2,17.1,16.7,17.1c4.1,0,7.3-0.8,8.9-1.6l-0.9-3.5c-1.8,0.9-4.5,1.4-7.1,1.4
		c-8.2,0-13-5.3-13-13.6C1301.4,156.4,1306.6,151.4,1314.5,151.4z"/>
	<path id="XMLID_33_" class="st12" d="M1348.2,168.2c0,7.5-3.2,10.8-8.2,10.8c-4.5,0-7.9-3.2-7.9-10.8v-20h-4.4v19.9
		c0,10.5,5.2,14.4,12.1,14.4c7.3,0,12.8-4.3,12.8-14.6v-19.7h-4.4V168.2z"/>
	<polygon id="XMLID_336_" class="st12" points="1370.9,182 1370.9,152 1381.2,152 1381.2,148.3 1356.3,148.3 1356.3,152 1366.5,152 
		1366.5,182 	"/>
	<rect id="XMLID_337_" x="1385" y="148.3" class="st12" width="4.3" height="33.7"/>
	<polygon id="XMLID_381_" class="st12" points="1401.3,178.3 1401.3,166.2 1414.4,166.2 1414.4,162.6 1401.3,162.6 1401.3,151.9 
		1415.1,151.9 1415.1,148.3 1396.9,148.3 1396.9,182 1415.9,182 1415.9,178.3 	"/>
	<path id="XMLID_387_" class="st12" d="M1346.4,210.8c-2-1.8-5.1-2.8-9.5-2.8c-3.5,0-6.3,0.3-8.4,0.6V242h4.4v-13.5
		c1,0.3,2.2,0.3,3.5,0.3c4.3,0,8-1.3,10.3-3.7c1.7-1.8,2.6-4.2,2.6-7.2C1349.3,214.9,1348.2,212.4,1346.4,210.8z M1336.5,225.3
		c-1.4,0-2.6-0.1-3.6-0.4v-13.1c0.8-0.2,2.2-0.4,4.1-0.4c4.8,0,8,2.2,8,6.6C1345,222.7,1341.8,225.3,1336.5,225.3z"/>
	<rect id="XMLID_388_" x="1355.2" y="208.3" class="st12" width="4.3" height="33.7"/>
	<polygon id="XMLID_389_" class="st12" points="1371.5,226.2 1384.6,226.2 1384.6,222.6 1371.5,222.6 1371.5,211.9 1385.3,211.9 
		1385.3,208.3 1367.1,208.3 1367.1,242 1386.1,242 1386.1,238.3 1371.5,238.3 	"/>
</g>
<g id="XMLID_271_">
	<rect id="XMLID_272_" x="804.7" y="376.2" class="st12" width="4.3" height="33.7"/>
	<polygon id="XMLID_273_" class="st12" points="846,406.3 831.6,406.3 831.6,376.2 827.3,376.2 827.3,409.9 846,409.9 	"/>
	<path id="XMLID_305_" class="st12" d="M862.1,410.5c8.6,0,15.7-6.2,15.7-17.8c0-10-6-17.1-15.2-17.1c-9,0-15.7,7-15.7,17.7
		C846.9,403.6,853.2,410.5,862.1,410.5z M862.4,379.2c7.3,0,10.8,7,10.8,13.7c0,7.7-3.9,14-10.8,14c-6.9,0-10.8-6.5-10.8-13.7
		C851.6,385.9,855.2,379.2,862.4,379.2z"/>
	<path id="XMLID_306_" class="st12" d="M895.6,409.9l12.1-33.7H903l-5.7,16.7c-1.5,4.4-2.9,8.7-3.9,12.6h-0.1
		c-0.9-4-2.2-8.1-3.6-12.6l-5.3-16.6h-4.7l11,33.7H895.6z"/>
	<polygon id="XMLID_307_" class="st12" points="915.6,406.3 915.6,394.1 928.7,394.1 928.7,390.5 915.6,390.5 915.6,379.9 
		929.5,379.9 929.5,376.2 911.3,376.2 911.3,409.9 930.2,409.9 930.2,406.3 	"/>
	<path id="XMLID_308_" class="st12" d="M837.7,445.5c-1.3,2.5-2.5,4.8-3.4,7h-0.1c-1-2.4-2-4.4-3.4-7l-4.8-9.3h-5l10.7,19.4v14.3
		h4.4v-14.4l11.3-19.4h-5L837.7,445.5z"/>
	<path id="XMLID_311_" class="st12" d="M863.2,435.7c-9,0-15.7,7-15.7,17.7c0,10.2,6.3,17.1,15.2,17.1c8.6,0,15.7-6.2,15.7-17.8
		C878.3,442.7,872.4,435.7,863.2,435.7z M862.9,466.9c-6.9,0-10.8-6.5-10.8-13.7c0-7.4,3.6-14.1,10.8-14.1c7.3,0,10.8,7,10.8,13.7
		C873.7,460.6,869.8,466.9,862.9,466.9z"/>
	<path id="XMLID_312_" class="st12" d="M904.4,456.2c0,7.5-3.2,10.8-8.2,10.8c-4.5,0-7.9-3.2-7.9-10.8v-20h-4.4v19.9
		c0,10.5,5.2,14.4,12.1,14.4c7.3,0,12.8-4.3,12.8-14.6v-19.7h-4.4V456.2z"/>
</g>
<g id="XMLID_268_">
	<path id="XMLID_269_" class="st12" d="M1070,401.8c-3,0-5.9-1-7.8-2.2l-1.1,3.7c1.8,1.2,5.4,2.1,8.6,2.1c8,0,11.8-4.5,11.8-9.7
		c0-5-2.9-7.7-8.6-9.9c-4.7-1.8-6.7-3.4-6.7-6.5c0-2.3,1.8-5.1,6.3-5.1c3.1,0,5.3,1,6.4,1.6l1.2-3.6c-1.5-0.9-4-1.6-7.5-1.6
		c-6.6,0-10.9,3.9-10.9,9.2c0,4.8,3.4,7.6,8.9,9.6c4.5,1.8,6.4,3.5,6.4,6.7C1077,399.5,1074.4,401.8,1070,401.8z"/>
	<path id="XMLID_291_" class="st12" d="M1100.6,405.5c8.6,0,15.7-6.2,15.7-17.8c0-10-6-17.1-15.2-17.1c-9,0-15.7,7-15.7,17.7
		C1085.4,398.6,1091.7,405.5,1100.6,405.5z M1100.9,374.2c7.3,0,10.8,7,10.8,13.7c0,7.7-3.9,14-10.8,14c-6.9,0-10.8-6.5-10.8-13.7
		C1090.1,380.9,1093.7,374.2,1100.9,374.2z"/>
	<path id="XMLID_292_" class="st12" d="M1133.9,405.5c7.3,0,12.8-4.3,12.8-14.6v-19.7h-4.4v20c0,7.5-3.2,10.8-8.2,10.8
		c-4.5,0-7.9-3.2-7.9-10.8v-20h-4.4v19.9C1121.8,401.5,1127,405.5,1133.9,405.5z"/>
	<polygon id="XMLID_293_" class="st12" points="1158.6,401.3 1158.6,371.2 1154.2,371.2 1154.2,404.9 1173,404.9 1173,401.3 	"/>
	<path id="XMLID_294_" class="st12" d="M1088.2,431.2l-6,16.3c-1.5,4.3-2.7,8-3.6,11.4h-0.1c-0.9-3.5-2-7.2-3.4-11.4l-5.8-16.3h-5.6
		l-2.3,33.7h4.1l0.9-14.5c0.3-5.1,0.5-10.7,0.7-14.9h0.1c1,4,2.3,8.4,3.9,13.1l5.5,16.1h3.3l6-16.4c1.7-4.7,3.1-8.9,4.3-12.8h0.2
		c-0.1,4.2,0.3,9.9,0.5,14.6l0.8,14.8h4.3l-2.1-33.7H1088.2z"/>
	<path id="XMLID_297_" class="st12" d="M1111,431.2l-11.5,33.7h4.5l3.5-10.6h12l3.6,10.6h4.7l-11.5-33.7H1111z M1108.4,450.9
		l3.3-9.8c0.7-2.1,1.2-4.1,1.7-6.1h0.1c0.5,2,1,4,1.8,6.2l3.3,9.7H1108.4z"/>
	<polygon id="XMLID_298_" class="st12" points="1125,434.9 1135.2,434.9 1135.2,464.9 1139.6,464.9 1139.6,434.9 1149.9,434.9 
		1149.9,431.2 1125,431.2 	"/>
	<polygon id="XMLID_299_" class="st12" points="1158,449.1 1171.1,449.1 1171.1,445.5 1158,445.5 1158,434.9 1171.9,434.9 
		1171.9,431.2 1153.7,431.2 1153.7,464.9 1172.6,464.9 1172.6,461.3 1158,461.3 	"/>
</g>
<g id="XMLID_42_">
	<path id="XMLID_43_" class="st12" d="M1331.7,389c0.3-5.1,0.5-10.7,0.6-14.9h0.1c0.9,4,2.3,8.4,3.9,13.1l5.5,16.1h3.3l6-16.4
		c1.7-4.7,3.1-8.9,4.3-12.8h0.2c0,4.2,0.3,9.9,0.5,14.6l0.9,14.8h4.3l-2.1-33.7h-5.5l-6,16.3c-1.5,4.3-2.7,8-3.5,11.4h-0.2
		c-0.8-3.5-2-7.2-3.4-11.4l-5.8-16.3h-5.5l-2.4,33.7h4.2L1331.7,389z"/>
	<path id="XMLID_320_" class="st12" d="M1375.2,403.4h4.4v-14.4l11.3-19.4h-5l-4.9,9.3c-1.3,2.5-2.5,4.8-3.4,7h-0.1
		c-1-2.4-2-4.4-3.4-7l-4.8-9.3h-5l10.7,19.4V403.4z"/>
	<polygon id="XMLID_321_" class="st12" points="1311.2,429.7 1306.8,429.7 1306.8,463.4 1325.6,463.4 1325.6,459.8 1311.2,459.8 	
		"/>
	<path id="XMLID_324_" class="st12" d="M1342.1,429.2c-9,0-15.7,7-15.7,17.7c0,10.2,6.3,17.1,15.2,17.1c8.6,0,15.7-6.2,15.7-17.8
		C1357.3,436.2,1351.3,429.2,1342.1,429.2z M1341.9,460.4c-6.9,0-10.8-6.5-10.8-13.7c0-7.4,3.6-14.1,10.8-14.1
		c7.3,0,10.8,7,10.8,13.7C1352.7,454.1,1348.8,460.4,1341.9,460.4z"/>
	<path id="XMLID_325_" class="st12" d="M1376.8,446.4c-1.5,4.4-2.9,8.7-3.9,12.6h-0.1c-0.9-4-2.2-8.1-3.6-12.6l-5.3-16.6h-4.7
		l11,33.7h4.8l12.1-33.7h-4.7L1376.8,446.4z"/>
	<polygon id="XMLID_326_" class="st12" points="1395.2,459.8 1395.2,447.6 1408.3,447.6 1408.3,444 1395.2,444 1395.2,433.4 
		1409,433.4 1409,429.7 1390.8,429.7 1390.8,463.4 1409.8,463.4 1409.8,459.8 	"/>
</g>
<g id="XMLID_203_">
	<path id="XMLID_211_" class="st12" d="M111.1,637.3h-5l-4.6,7.9c-1.3,2.2-2.1,3.7-3.1,5.7h-0.1c-0.9-1.8-1.9-3.5-3.1-5.7l-4.5-7.9
		h-5.1l9.9,16.7L85.3,671h5l4.1-7.4c1.8-3,2.7-4.8,3.6-6.7h0.1c1.1,2,2.2,3.8,3.9,6.7l4.3,7.5h5.1l-10.5-17.3L111.1,637.3z"/>
	<path id="XMLID_208_" class="st12" d="M128.6,636.7c-9,0-15.7,7-15.7,17.7c0,10.2,6.3,17.1,15.2,17.1c8.6,0,15.7-6.2,15.7-17.8
		C143.7,643.8,137.8,636.7,128.6,636.7z M128.3,668c-6.9,0-10.8-6.5-10.8-13.7c0-7.4,3.6-14.1,10.8-14.1c7.3,0,10.8,7,10.8,13.7
		C139.1,661.6,135.2,668,128.3,668z"/>
	<path id="XMLID_207_" class="st12" d="M171.3,637.3h-5l-4.6,7.9c-1.3,2.2-2.1,3.7-3.1,5.7h-0.1c-0.9-1.8-1.9-3.5-3.1-5.7l-4.5-7.9
		h-5.1l9.9,16.7L145.5,671h5l4.1-7.4c1.8-3,2.7-4.8,3.6-6.7h0.1c1.1,2,2.2,3.8,3.9,6.7l4.3,7.5h5.1L161,653.7L171.3,637.3z"/>
	<path id="XMLID_204_" class="st12" d="M188.8,636.7c-9,0-15.7,7-15.7,17.7c0,10.2,6.3,17.1,15.2,17.1c8.6,0,15.7-6.2,15.7-17.8
		C203.9,643.8,198,636.7,188.8,636.7z M188.5,668c-6.9,0-10.8-6.5-10.8-13.7c0-7.4,3.6-14.1,10.8-14.1c7.3,0,10.8,7,10.8,13.7
		C199.3,661.6,195.4,668,188.5,668z"/>
</g>
<g id="XMLID_196_">
	<path id="XMLID_202_" class="st12" d="M370.9,651l-13.2-19.4l12.2-14.3h-5.4l-10.3,12.7c-0.9,1.1-1.8,2.3-2.7,3.6h-0.1v-16.3h-4.4
		V651h4.4v-12.9l3.2-3.7l11.1,16.6H370.9z"/>
	<rect id="XMLID_201_" x="374.2" y="617.3" class="st12" width="4.4" height="33.7"/>
	<path id="XMLID_200_" class="st12" d="M404.9,641.8c0-5-2.9-7.7-8.6-9.9c-4.7-1.8-6.7-3.4-6.7-6.5c0-2.3,1.8-5.1,6.4-5.1
		c3.1,0,5.3,1,6.4,1.6l1.2-3.6c-1.5-0.9-4-1.6-7.5-1.6c-6.6,0-10.9,3.9-10.9,9.2c0,4.8,3.4,7.6,8.9,9.6c4.6,1.8,6.4,3.5,6.4,6.7
		c0,3.4-2.6,5.8-7.1,5.8c-3,0-5.9-1-7.8-2.2l-1.1,3.7c1.8,1.2,5.4,2.1,8.6,2.1C401,651.5,404.9,647,404.9,641.8z"/>
	<path id="XMLID_199_" class="st12" d="M420.9,631.9c-4.7-1.8-6.7-3.4-6.7-6.5c0-2.3,1.8-5.1,6.4-5.1c3.1,0,5.3,1,6.4,1.6l1.2-3.6
		c-1.5-0.9-4-1.6-7.5-1.6c-6.6,0-10.9,3.9-10.9,9.2c0,4.8,3.4,7.6,8.9,9.6c4.6,1.8,6.4,3.5,6.4,6.7c0,3.4-2.6,5.8-7.1,5.8
		c-3,0-5.9-1-7.8-2.2l-1.1,3.7c1.8,1.2,5.4,2.1,8.6,2.1c8,0,11.8-4.5,11.8-9.7C429.5,636.8,426.6,634.1,420.9,631.9z"/>
	<path id="XMLID_198_" class="st12" d="M384.8,677.3l-6,16.3c-1.5,4.3-2.7,8-3.6,11.4h-0.1c-0.9-3.5-2-7.2-3.4-11.4l-5.8-16.3h-5.6
		L358,711h4.1l0.9-14.5c0.3-5.1,0.5-10.7,0.6-14.9h0.1c0.9,4,2.3,8.4,3.9,13.1l5.5,16.1h3.3l6-16.4c1.7-4.7,3.1-8.9,4.3-12.8h0.2
		c-0.1,4.2,0.3,9.9,0.5,14.6l0.9,14.8h4.3l-2.1-33.7H384.8z"/>
	<polygon id="XMLID_197_" class="st12" points="403.5,695.2 416.6,695.2 416.6,691.6 403.5,691.6 403.5,680.9 417.3,680.9 
		417.3,677.3 399.1,677.3 399.1,711 418.1,711 418.1,707.3 403.5,707.3 	"/>
</g>
<g id="XMLID_190_">
	<polygon id="XMLID_195_" class="st12" points="844.3,652 848.7,652 848.7,618.3 844.3,618.3 844.3,632.4 828,632.4 828,618.3 
		823.7,618.3 823.7,652 828,652 828,636.2 844.3,636.2 	"/>
	<path id="XMLID_194_" class="st12" d="M881.1,618.3h-4.4v20c0,7.5-3.2,10.8-8.2,10.8c-4.5,0-7.9-3.2-7.9-10.8v-20h-4.4v19.9
		c0,10.5,5.2,14.4,12.1,14.4c7.3,0,12.8-4.3,12.8-14.6V618.3z"/>
	<path id="XMLID_193_" class="st12" d="M903.2,634.3v3.5h6.9v10.1c-1,0.5-3,0.9-5.8,0.9c-7.9,0-13-5.1-13-13.6
		c0-8.5,5.3-13.6,13.6-13.6c3.4,0,5.7,0.6,7.5,1.5l1-3.6c-1.5-0.7-4.5-1.6-8.4-1.6c-11.3,0-18.2,7.4-18.3,17.4
		c0,5.3,1.8,9.8,4.7,12.6c3.3,3.1,7.5,4.5,12.6,4.5c4.6,0,8.4-1.1,10.4-1.9v-16.2H903.2z"/>
	<path id="XMLID_192_" class="st12" d="M865.8,678.3l-6,16.3c-1.5,4.3-2.7,8-3.5,11.4h-0.2c-0.8-3.5-2-7.2-3.4-11.4l-5.8-16.3h-5.5
		L839,712h4.2l0.9-14.5c0.3-5.1,0.5-10.7,0.6-14.9h0.1c0.9,4,2.3,8.4,3.9,13.1l5.5,16.1h3.3l6-16.4c1.7-4.7,3.1-8.9,4.3-12.8h0.2
		c0,4.2,0.3,9.9,0.5,14.6l0.9,14.8h4.3l-2.1-33.7H865.8z"/>
	<polygon id="XMLID_191_" class="st12" points="884.5,696.2 897.6,696.2 897.6,692.6 884.5,692.6 884.5,681.9 898.3,681.9 
		898.3,678.3 880.1,678.3 880.1,712 899.1,712 899.1,708.3 884.5,708.3 	"/>
</g>
<g id="XMLID_175_">
	<path id="XMLID_189_" class="st12" d="M325.6,870.3c-3,0-5.8-1-7.8-2.2l-1.1,3.7c1.8,1.2,5.4,2.1,8.6,2.1c8,0,11.8-4.5,11.8-9.7
		c0-5-2.9-7.7-8.6-9.9c-4.7-1.8-6.7-3.4-6.7-6.5c0-2.3,1.8-5.1,6.4-5.1c3,0,5.3,1,6.4,1.6l1.2-3.6c-1.5-0.9-4-1.6-7.5-1.6
		c-6.5,0-10.9,3.9-10.9,9.2c0,4.8,3.4,7.6,8.9,9.6c4.6,1.8,6.4,3.5,6.4,6.7C332.7,868,330.1,870.3,325.6,870.3z"/>
	<path id="XMLID_188_" class="st12" d="M376.7,839.7l-4.5,17c-1,4.2-2,8-2.7,11.7h-0.1c-0.5-3.6-1.4-7.6-2.4-11.6l-4.1-17.1h-4.6
		l-4.5,17c-1.2,4.4-2.2,8.4-2.8,11.7h-0.1c-0.6-3.3-1.5-7.5-2.5-11.7l-4-17.1H340l8.6,33.7h4.6l4.8-17.6c1.3-4.4,2-7.7,2.6-11h0.1
		c0.5,3.4,1.2,6.7,2.2,11l4.3,17.6h4.6l9.5-33.7H376.7z"/>
	<polygon id="XMLID_187_" class="st12" points="389.7,857.6 402.8,857.6 402.8,854 389.7,854 389.7,843.4 403.6,843.4 403.6,839.7 
		385.4,839.7 385.4,873.4 404.3,873.4 404.3,869.8 389.7,869.8 	"/>
	<polygon id="XMLID_186_" class="st12" points="428.9,869.8 414.3,869.8 414.3,857.6 427.4,857.6 427.4,854 414.3,854 414.3,843.4 
		428.2,843.4 428.2,839.7 410,839.7 410,873.4 428.9,873.4 	"/>
	<polygon id="XMLID_185_" class="st12" points="431.5,839.7 431.5,843.4 441.8,843.4 441.8,873.4 446.2,873.4 446.2,843.4 
		456.5,843.4 456.5,839.7 	"/>
	<polygon id="XMLID_184_" class="st12" points="340,913.8 323.7,913.8 323.7,899.7 319.3,899.7 319.3,933.4 323.7,933.4 
		323.7,917.6 340,917.6 340,933.4 344.4,933.4 344.4,899.7 340,899.7 	"/>
	<polygon id="XMLID_183_" class="st12" points="356.3,917.6 369.4,917.6 369.4,914 356.3,914 356.3,903.4 370.1,903.4 370.1,899.7 
		351.9,899.7 351.9,933.4 370.9,933.4 370.9,929.8 356.3,929.8 	"/>
	<path id="XMLID_180_" class="st12" d="M385.4,899.7L374,933.4h4.5l3.5-10.6h12l3.6,10.6h4.7l-11.5-33.7H385.4z M382.9,919.4
		l3.3-9.8c0.7-2.1,1.2-4.1,1.7-6.1h0.1c0.5,2,1,4,1.8,6.2l3.3,9.7H382.9z"/>
	<path id="XMLID_177_" class="st12" d="M421.5,917.4v-0.2c3.6-1.2,6.4-4.1,6.4-8.6c0-2.6-1-4.9-2.7-6.4c-2.1-1.9-5.1-2.8-9.8-2.8
		c-3,0-6.2,0.3-8.4,0.7v33.3h4.3v-14.6h4.1c4,0.2,5.8,1.9,6.8,6.6c1,4.2,1.7,7.1,2.3,8.1h4.5c-0.7-1.3-1.5-4.6-2.6-9.3
		C425.7,920.7,424.1,918.3,421.5,917.4z M415.9,915.5h-4.5v-12.3c0.7-0.2,2.2-0.4,4.3-0.4c4.6,0.1,7.8,2,7.8,6.3
		C423.5,913,420.6,915.5,415.9,915.5z"/>
	<polygon id="XMLID_176_" class="st12" points="430.6,903.4 440.9,903.4 440.9,933.4 445.3,933.4 445.3,903.4 455.6,903.4 
		455.6,899.7 430.6,899.7 	"/>
</g>
<g id="XMLID_168_">
	<polygon id="XMLID_174_" class="st12" points="1070.2,638.3 1065.8,638.3 1065.8,672 1084.6,672 1084.6,668.3 1070.2,668.3 	"/>
	<path id="XMLID_171_" class="st12" d="M1101.1,637.7c-9,0-15.7,7-15.7,17.7c0,10.2,6.3,17.1,15.2,17.1c8.6,0,15.7-6.2,15.7-17.8
		C1116.3,644.8,1110.3,637.7,1101.1,637.7z M1100.9,669c-6.9,0-10.8-6.5-10.8-13.7c0-7.4,3.6-14.1,10.8-14.1c7.3,0,10.8,7,10.8,13.7
		C1111.7,662.6,1107.8,669,1100.9,669z"/>
	<path id="XMLID_170_" class="st12" d="M1135.8,654.9c-1.5,4.4-2.9,8.7-3.9,12.6h-0.1c-0.9-4-2.2-8.1-3.6-12.6l-5.3-16.6h-4.7
		l11,33.7h4.8l12.1-33.7h-4.7L1135.8,654.9z"/>
	<polygon id="XMLID_169_" class="st12" points="1154.2,668.3 1154.2,656.2 1167.3,656.2 1167.3,652.6 1154.2,652.6 1154.2,641.9 
		1168,641.9 1168,638.3 1149.8,638.3 1149.8,672 1168.8,672 1168.8,668.3 	"/>
</g>
<g id="XMLID_162_">
	<path id="XMLID_166_" class="st12" d="M108.7,868.4c2.8,0,5.2,0.6,6.8,1.4l1-3.6c-1.2-0.6-3.8-1.5-8-1.5
		c-10.5,0-17.6,7.2-17.6,17.7c0,11.1,7.2,17.1,16.7,17.1c4.1,0,7.3-0.8,8.9-1.6l-0.9-3.5c-1.8,0.9-4.5,1.4-7.1,1.4
		c-8.2,0-13-5.3-13-13.6C95.5,873.4,100.8,868.4,108.7,868.4z"/>
	<path id="XMLID_165_" class="st12" d="M142.3,885.2c0,7.5-3.2,10.8-8.2,10.8c-4.5,0-7.9-3.2-7.9-10.8v-20h-4.4v19.9
		c0,10.5,5.2,14.4,12.1,14.4c7.3,0,12.8-4.3,12.8-14.6v-19.7h-4.4V885.2z"/>
	<polygon id="XMLID_164_" class="st12" points="150.4,869 160.7,869 160.7,899 165.1,899 165.1,869 175.4,869 175.4,865.3 
		150.4,865.3 	"/>
	<polygon id="XMLID_163_" class="st12" points="183.5,895.3 183.5,883.2 196.6,883.2 196.6,879.6 183.5,879.6 183.5,868.9 
		197.3,868.9 197.3,865.3 179.1,865.3 179.1,899 198.1,899 198.1,895.3 	"/>
</g>
<g id="XMLID_152_">
	<path id="XMLID_158_" class="st12" d="M618.8,855.4L618.8,855.4c3.6-1.4,5.7-4.3,5.7-7.5c0-2.6-1-4.6-2.8-6
		c-2.1-1.7-4.9-2.5-9.3-2.5c-3,0-6.1,0.3-8,0.7v33.2c1.5,0.2,3.8,0.4,6.8,0.4c5.5,0,9.3-1,11.7-3.1c1.7-1.7,2.9-3.9,2.9-6.8
		C625.7,858.8,622,856.2,618.8,855.4z M608.8,843.1c0.7-0.1,1.9-0.3,3.9-0.3c4.4,0,7.4,1.6,7.4,5.5c0,3.3-2.7,5.7-7.3,5.7h-4V843.1z
		 M612.5,870.3c-1.6,0-2.8-0.1-3.7-0.2v-12.9h3.6c4.8,0,8.7,1.9,8.7,6.5C621.1,868.7,617,870.3,612.5,870.3z"/>
	<polygon id="XMLID_157_" class="st12" points="650.5,869.8 635.9,869.8 635.9,857.6 649,857.6 649,854 635.9,854 635.9,843.4 
		649.8,843.4 649.8,839.7 631.6,839.7 631.6,873.4 650.5,873.4 	"/>
	<path id="XMLID_156_" class="st12" d="M601.3,899.7l-6,16.3c-1.5,4.3-2.7,8-3.6,11.4h-0.1c-0.9-3.5-2-7.2-3.4-11.4l-5.8-16.3h-5.6
		l-2.4,33.7h4.1l0.9-14.5c0.3-5.1,0.5-10.7,0.6-14.9h0.1c0.9,4,2.3,8.4,3.9,13.1l5.5,16.1h3.3l6-16.4c1.7-4.7,3.1-8.9,4.3-12.8h0.2
		c-0.1,4.2,0.3,9.9,0.5,14.6l0.9,14.8h4.3l-2.1-33.7H601.3z"/>
	<rect id="XMLID_155_" x="615.7" y="899.7" class="st12" width="4.4" height="33.7"/>
	<path id="XMLID_154_" class="st12" d="M648.8,913.8c0,5.3,0.1,9.4,0.5,13.9l-0.1,0.1c-1.6-3.5-3.5-7-6.1-11l-10.8-17.1h-4.8v33.7
		h4.1V919c0-5.6-0.1-9.7-0.4-13.9l0.2,0c1.7,3.6,4,7.5,6.3,11.3l10.7,17.1h4.4v-33.7h-4.1V913.8z"/>
	<polygon id="XMLID_153_" class="st12" points="664.9,929.8 664.9,917.6 678,917.6 678,914 664.9,914 664.9,903.4 678.7,903.4 
		678.7,899.7 660.5,899.7 660.5,933.4 679.5,933.4 679.5,929.8 	"/>
</g>
<g id="XMLID_133_">
	<path id="XMLID_150_" class="st12" d="M582,618.4h-10.3v-3.7h25v3.7h-10.3v30H582V618.4z"/>
	<path id="XMLID_147_" class="st12" d="M600.5,615.2c2.2-0.5,5.4-0.7,8.4-0.7c4.7,0,7.7,0.9,9.8,2.8c1.7,1.5,2.6,3.8,2.6,6.4
		c0,4.5-2.8,7.4-6.4,8.6v0.2c2.6,0.9,4.2,3.3,5,6.8c1.1,4.7,1.9,8,2.6,9.3h-4.5c-0.6-1-1.3-3.9-2.3-8.1c-1-4.7-2.8-6.4-6.8-6.6h-4.1
		v14.6h-4.4V615.2z M604.8,630.5h4.5c4.7,0,7.6-2.6,7.6-6.4c0-4.4-3.1-6.3-7.8-6.3c-2.1,0-3.6,0.2-4.3,0.4V630.5z"/>
	<path id="XMLID_145_" class="st12" d="M631.7,614.7v20c0,7.6,3.4,10.8,7.9,10.8c5,0,8.2-3.3,8.2-10.8v-20h4.4v19.7
		c0,10.4-5.5,14.6-12.8,14.6c-6.9,0-12.1-4-12.1-14.4v-19.9H631.7z"/>
	<path id="XMLID_143_" class="st12" d="M677.2,632.6h-13.1v12.2h14.6v3.7h-19v-33.7h18.2v3.7h-13.9V629h13.1V632.6z"/>
	<path id="XMLID_141_" class="st12" d="M575.7,674.7h4.4v30.1h14.4v3.7h-18.8V674.7z"/>
	<path id="XMLID_138_" class="st12" d="M626.1,691.2c0,11.6-7.1,17.8-15.7,17.8c-8.9,0-15.2-6.9-15.2-17.1
		c0-10.7,6.7-17.7,15.7-17.7C620.2,674.2,626.1,681.2,626.1,691.2z M600,691.8c0,7.2,3.9,13.7,10.8,13.7c6.9,0,10.8-6.4,10.8-14
		c0-6.7-3.5-13.7-10.8-13.7C603.6,677.7,600,684.4,600,691.8z"/>
	<path id="XMLID_136_" class="st12" d="M639.2,708.4l-11-33.7h4.7l5.3,16.6c1.5,4.6,2.7,8.7,3.6,12.6h0.1c0.9-3.9,2.4-8.2,3.9-12.6
		l5.7-16.7h4.7L644,708.4H639.2z"/>
	<path id="XMLID_134_" class="st12" d="M677.1,692.6H664v12.2h14.6v3.7h-19v-33.7h18.2v3.7H664V689h13.1V692.6z"/>
</g>
<g id="XMLID_122_">
	<path id="XMLID_132_" class="st12" d="M1315.5,621.4c2.8,0,5.2,0.6,6.8,1.4l1.1-3.6c-1.2-0.6-3.8-1.5-8-1.5
		c-10.5,0-17.6,7.2-17.6,17.7c0,11.1,7.2,17.1,16.7,17.1c4.1,0,7.3-0.8,8.9-1.6l-0.9-3.5c-1.8,0.9-4.5,1.4-7.1,1.4
		c-8.2,0-13-5.3-13-13.6C1302.4,626.4,1307.6,621.4,1315.5,621.4z"/>
	<path id="XMLID_131_" class="st12" d="M1349.2,638.2c0,7.5-3.2,10.8-8.2,10.8c-4.5,0-7.9-3.2-7.9-10.8v-20h-4.4v19.9
		c0,10.5,5.2,14.4,12.1,14.4c7.3,0,12.8-4.3,12.8-14.6v-19.7h-4.4V638.2z"/>
	<polygon id="XMLID_130_" class="st12" points="1371.9,652 1371.9,622 1382.2,622 1382.2,618.3 1357.3,618.3 1357.3,622 1367.5,622 
		1367.5,652 	"/>
	<rect id="XMLID_129_" x="1386" y="618.3" class="st12" width="4.3" height="33.7"/>
	<polygon id="XMLID_128_" class="st12" points="1402.3,648.3 1402.3,636.2 1415.4,636.2 1415.4,632.6 1402.3,632.6 1402.3,621.9 
		1416.1,621.9 1416.1,618.3 1397.9,618.3 1397.9,652 1416.9,652 1416.9,648.3 	"/>
	<path id="XMLID_125_" class="st12" d="M1347.4,680.8c-2-1.8-5.1-2.8-9.5-2.8c-3.5,0-6.3,0.3-8.4,0.6V712h4.4v-13.5
		c1,0.3,2.2,0.3,3.5,0.3c4.3,0,8-1.3,10.3-3.7c1.7-1.8,2.6-4.2,2.6-7.2C1350.3,684.9,1349.2,682.4,1347.4,680.8z M1337.5,695.3
		c-1.4,0-2.6-0.1-3.6-0.4v-13.1c0.8-0.2,2.2-0.4,4.1-0.4c4.8,0,8,2.2,8,6.6C1346,692.7,1342.8,695.3,1337.5,695.3z"/>
	<rect id="XMLID_124_" x="1356.2" y="678.3" class="st12" width="4.3" height="33.7"/>
	<polygon id="XMLID_123_" class="st12" points="1372.5,696.2 1385.6,696.2 1385.6,692.6 1372.5,692.6 1372.5,681.9 1386.3,681.9 
		1386.3,678.3 1368.1,678.3 1368.1,712 1387.1,712 1387.1,708.3 1372.5,708.3 	"/>
</g>
<g id="XMLID_109_">
	<rect id="XMLID_121_" x="805.7" y="846.2" class="st12" width="4.3" height="33.7"/>
	<polygon id="XMLID_120_" class="st12" points="847,876.3 832.6,876.3 832.6,846.2 828.3,846.2 828.3,879.9 847,879.9 	"/>
	<path id="XMLID_117_" class="st12" d="M863.1,880.5c8.6,0,15.7-6.2,15.7-17.8c0-10-6-17.1-15.2-17.1c-9,0-15.7,7-15.7,17.7
		C847.9,873.6,854.2,880.5,863.1,880.5z M863.4,849.2c7.3,0,10.8,7,10.8,13.7c0,7.7-3.9,14-10.8,14c-6.9,0-10.8-6.5-10.8-13.7
		C852.6,855.9,856.2,849.2,863.4,849.2z"/>
	<path id="XMLID_116_" class="st12" d="M896.6,879.9l12.1-33.7H904l-5.7,16.7c-1.5,4.4-2.9,8.7-3.9,12.6h-0.1
		c-0.9-4-2.2-8.1-3.6-12.6l-5.3-16.6h-4.7l11,33.7H896.6z"/>
	<polygon id="XMLID_115_" class="st12" points="916.6,876.3 916.6,864.1 929.7,864.1 929.7,860.5 916.6,860.5 916.6,849.9 
		930.5,849.9 930.5,846.2 912.3,846.2 912.3,879.9 931.2,879.9 931.2,876.3 	"/>
	<path id="XMLID_114_" class="st12" d="M838.7,915.5c-1.3,2.5-2.5,4.8-3.4,7h-0.1c-1-2.4-2-4.4-3.4-7l-4.8-9.3h-5l10.7,19.4v14.3
		h4.4v-14.4l11.3-19.4h-5L838.7,915.5z"/>
	<path id="XMLID_111_" class="st12" d="M864.2,905.7c-9,0-15.7,7-15.7,17.7c0,10.2,6.3,17.1,15.2,17.1c8.6,0,15.7-6.2,15.7-17.8
		C879.3,912.7,873.4,905.7,864.2,905.7z M863.9,936.9c-6.9,0-10.8-6.5-10.8-13.7c0-7.4,3.6-14.1,10.8-14.1c7.3,0,10.8,7,10.8,13.7
		C874.7,930.6,870.8,936.9,863.9,936.9z"/>
	<path id="XMLID_110_" class="st12" d="M905.4,926.2c0,7.5-3.2,10.8-8.2,10.8c-4.5,0-7.9-3.2-7.9-10.8v-20h-4.4v19.9
		c0,10.5,5.2,14.4,12.1,14.4c7.3,0,12.8-4.3,12.8-14.6v-19.7h-4.4V926.2z"/>
</g>
<g id="XMLID_59_">
	<path id="XMLID_108_" class="st12" d="M1071,871.8c-3,0-5.9-1-7.8-2.2l-1.1,3.7c1.8,1.2,5.4,2.1,8.6,2.1c8,0,11.8-4.5,11.8-9.7
		c0-5-2.9-7.7-8.6-9.9c-4.7-1.8-6.7-3.4-6.7-6.5c0-2.3,1.8-5.1,6.3-5.1c3.1,0,5.3,1,6.4,1.6l1.2-3.6c-1.5-0.9-4-1.6-7.5-1.6
		c-6.6,0-10.9,3.9-10.9,9.2c0,4.8,3.4,7.6,8.9,9.6c4.5,1.8,6.4,3.5,6.4,6.7C1078,869.5,1075.4,871.8,1071,871.8z"/>
	<path id="XMLID_105_" class="st12" d="M1101.6,875.5c8.6,0,15.7-6.2,15.7-17.8c0-10-6-17.1-15.2-17.1c-9,0-15.7,7-15.7,17.7
		C1086.4,868.6,1092.7,875.5,1101.6,875.5z M1101.9,844.2c7.3,0,10.8,7,10.8,13.7c0,7.7-3.9,14-10.8,14c-6.9,0-10.8-6.5-10.8-13.7
		C1091.1,850.9,1094.7,844.2,1101.9,844.2z"/>
	<path id="XMLID_104_" class="st12" d="M1134.9,875.5c7.3,0,12.8-4.3,12.8-14.6v-19.7h-4.4v20c0,7.5-3.2,10.8-8.2,10.8
		c-4.5,0-7.9-3.2-7.9-10.8v-20h-4.4v19.9C1122.8,871.5,1128,875.5,1134.9,875.5z"/>
	<polygon id="XMLID_103_" class="st12" points="1159.6,871.3 1159.6,841.2 1155.2,841.2 1155.2,874.9 1174,874.9 1174,871.3 	"/>
	<path id="XMLID_78_" class="st12" d="M1089.2,901.2l-6,16.3c-1.5,4.3-2.7,8-3.6,11.4h-0.1c-0.9-3.5-2-7.2-3.4-11.4l-5.8-16.3h-5.6
		l-2.3,33.7h4.1l0.9-14.5c0.3-5.1,0.5-10.7,0.7-14.9h0.1c1,4,2.3,8.4,3.9,13.1l5.5,16.1h3.3l6-16.4c1.7-4.7,3.1-8.9,4.3-12.8h0.2
		c-0.1,4.2,0.3,9.9,0.5,14.6l0.8,14.8h4.3l-2.1-33.7H1089.2z"/>
	<path id="XMLID_62_" class="st12" d="M1112,901.2l-11.5,33.7h4.5l3.5-10.6h12l3.6,10.6h4.7l-11.5-33.7H1112z M1109.4,920.9l3.3-9.8
		c0.7-2.1,1.2-4.1,1.7-6.1h0.1c0.5,2,1,4,1.8,6.2l3.3,9.7H1109.4z"/>
	<polygon id="XMLID_61_" class="st12" points="1126,904.9 1136.2,904.9 1136.2,934.9 1140.6,934.9 1140.6,904.9 1150.9,904.9 
		1150.9,901.2 1126,901.2 	"/>
	<polygon id="XMLID_60_" class="st12" points="1159,919.1 1172.1,919.1 1172.1,915.5 1159,915.5 1159,904.9 1172.9,904.9 
		1172.9,901.2 1154.7,901.2 1154.7,934.9 1173.6,934.9 1173.6,931.3 1159,931.3 	"/>
</g>
<g id="XMLID_46_">
	<path id="XMLID_58_" class="st12" d="M1332.7,859c0.3-5.1,0.5-10.7,0.6-14.9h0.1c0.9,4,2.3,8.4,3.9,13.1l5.5,16.1h3.3l6-16.4
		c1.7-4.7,3.1-8.9,4.3-12.8h0.2c0,4.2,0.3,9.9,0.5,14.6l0.9,14.8h4.3l-2.1-33.7h-5.5l-6,16.3c-1.5,4.3-2.7,8-3.5,11.4h-0.2
		c-0.8-3.5-2-7.2-3.4-11.4l-5.8-16.3h-5.5l-2.4,33.7h4.2L1332.7,859z"/>
	<path id="XMLID_57_" class="st12" d="M1376.2,873.4h4.4v-14.4l11.3-19.4h-5l-4.9,9.3c-1.3,2.5-2.5,4.8-3.4,7h-0.1
		c-1-2.4-2-4.4-3.4-7l-4.8-9.3h-5l10.7,19.4V873.4z"/>
	<polygon id="XMLID_52_" class="st12" points="1312.2,899.7 1307.8,899.7 1307.8,933.4 1326.6,933.4 1326.6,929.8 1312.2,929.8 	"/>
	<path id="XMLID_49_" class="st12" d="M1343.1,899.2c-9,0-15.7,7-15.7,17.7c0,10.2,6.3,17.1,15.2,17.1c8.6,0,15.7-6.2,15.7-17.8
		C1358.3,906.2,1352.3,899.2,1343.1,899.2z M1342.9,930.4c-6.9,0-10.8-6.5-10.8-13.7c0-7.4,3.6-14.1,10.8-14.1
		c7.3,0,10.8,7,10.8,13.7C1353.7,924.1,1349.8,930.4,1342.9,930.4z"/>
	<path id="XMLID_48_" class="st12" d="M1377.8,916.4c-1.5,4.4-2.9,8.7-3.9,12.6h-0.1c-0.9-4-2.2-8.1-3.6-12.6l-5.3-16.6h-4.7
		l11,33.7h4.8l12.1-33.7h-4.7L1377.8,916.4z"/>
	<polygon id="XMLID_47_" class="st12" points="1396.2,929.8 1396.2,917.6 1409.3,917.6 1409.3,914 1396.2,914 1396.2,903.4 
		1410,903.4 1410,899.7 1391.8,899.7 1391.8,933.4 1410.8,933.4 1410.8,929.8 	"/>
</g>
</svg>
