<svg width="236" height="199" viewBox="0 0 236 199" fill="none" xmlns="http://www.w3.org/2000/svg">
<g clip-path="url(#clip0_6_2)">
<path d="M170.1 4.40002C170 4.40002 170 4.40002 170.1 4.40002C197.7 9.10002 219.8 31.3 219.8 58.6C219.8 88.9 211.2 113 185.3 140.5C159.4 168 126.2 189.4 111.6 189.4C97 189.4 63.8001 168.1 37.9001 140.5C32.0001 134.2 27 128.2 22.8 122.2C27.9 132.1 34.9 141.9 44.3 151.9C70.6 179.9 105.8 199.5 120.7 199.5C135.6 199.5 169.3 177.8 195.7 149.8C222 121.8 230.8 97.3 230.8 66.4C230.7 35.5 202.5 5.10002 170.1 4.40002Z" fill="#CCBA4B"/>
<path d="M170 4.40001C166.9 3.90001 163.8 3.59998 160.6 3.49998C128.7 2.79998 122.1 21.9 111.5 21.9C100.9 21.9 94.2001 2.79998 62.4001 3.49998C30.5001 4.19998 3.30005 28.3 3.30005 58.6C3.30005 74.3 5.60009 88.3 11.4001 101.9C14.3001 108.7 18.0001 115.4 22.7001 122.1C26.9001 128.1 31.9 134.2 37.8 140.4C63.7001 167.9 96.9001 189.3 111.5 189.3C126.1 189.3 159.3 168 185.2 140.4C211.1 112.9 219.7 88.8 219.7 58.5C219.7 31.3 197.7 9.00001 170 4.40001Z" fill="#F1E58A"/>
<path d="M53.9999 48.2H49.7V81.9H53.9999V48.2Z" fill="#B41F24"/>
<path d="M90.9998 78.3H76.5998V48.2H72.2998V81.9H90.9998V78.3Z" fill="#B41F24"/>
<path d="M107.1 82.5C115.7 82.5 122.8 76.3 122.8 64.7C122.8 54.7 116.8 47.6 107.6 47.6C98.5999 47.6 91.8999 54.6 91.8999 65.3C91.8999 75.6 98.1999 82.5 107.1 82.5ZM107.4 51.2C114.7 51.2 118.2 58.2 118.2 64.9C118.2 72.6 114.3 78.9 107.4 78.9C100.5 78.9 96.5999 72.4 96.5999 65.2C96.5999 57.9 100.2 51.2 107.4 51.2Z" fill="#B41F24"/>
<path d="M140.6 81.9L152.7 48.2H148L142.3 64.9C140.8 69.3 139.4 73.6 138.4 77.5H138.3C137.4 73.5 136.1 69.4 134.7 64.9L129.4 48.3H124.7L135.7 82H140.6V81.9Z" fill="#B41F24"/>
<path d="M160.6 78.3V66.1H173.7V62.5H160.6V51.9H174.5V48.2H156.3V81.9H175.2V78.3H160.6Z" fill="#B41F24"/>
<path d="M82.7 117.5C81.4 120 80.2 122.3 79.3 124.5H79.2C78.2 122.1 77.2 120.1 75.8 117.5L71 108.2H66L76.7 127.6V141.9H81.1V127.5L92.4 108.1H87.4L82.7 117.5Z" fill="#B41F24"/>
<path d="M108.2 107.7C99.2 107.7 92.5 114.7 92.5 125.4C92.5 135.6 98.8 142.5 107.7 142.5C116.3 142.5 123.4 136.3 123.4 124.7C123.3 114.7 117.4 107.7 108.2 107.7ZM107.9 138.9C101 138.9 97.1 132.4 97.1 125.2C97.1 117.8 100.7 111.1 107.9 111.1C115.2 111.1 118.7 118.1 118.7 124.8C118.7 132.6 114.8 138.9 107.9 138.9Z" fill="#B41F24"/>
<path d="M149.4 128.2C149.4 135.7 146.2 139 141.2 139C136.7 139 133.3 135.8 133.3 128.2V108.2H128.9V128.1C128.9 138.6 134.1 142.5 141 142.5C148.3 142.5 153.8 138.2 153.8 127.9V108.2H149.4V128.2Z" fill="#B41F24"/>
</g>
<defs>
<clipPath id="clip0_6_2">
<rect width="236" height="199" fill="white"/>
</clipPath>
</defs>
</svg>
