<svg width="231" height="206" viewBox="0 0 231 206" fill="none" xmlns="http://www.w3.org/2000/svg">
<path d="M170.1 10.4C170 10.4 170 10.4 170.1 10.4C197.7 15.1 219.8 37.3 219.8 64.6C219.8 94.9 211.2 119 185.3 146.5C159.4 174 126.2 195.4 111.6 195.4C97.0001 195.4 63.8001 174.1 37.9001 146.5C32.0001 140.2 27 134.2 22.8 128.2C27.9 138.1 34.9 147.9 44.3 157.9C70.6 185.9 105.8 205.5 120.7 205.5C135.6 205.5 169.3 183.8 195.7 155.8C222 127.8 230.8 103.3 230.8 72.4C230.7 41.5 202.5 11.1 170.1 10.4Z" fill="#D65B8D"/>
<path d="M170 10.4C166.9 9.89998 163.8 9.59998 160.6 9.49998C128.7 8.79998 122.1 27.9 111.5 27.9C100.9 27.9 94.2001 8.79998 62.4001 9.49998C30.5001 10.2 3.30005 34.3 3.30005 64.6C3.30005 80.3 5.60005 94.3 11.4001 107.9C14.3001 114.7 18.0001 121.4 22.7001 128.1C26.9001 134.1 31.9 140.2 37.8 146.4C63.7 173.9 96.9001 195.3 111.5 195.3C126.1 195.3 159.3 174 185.2 146.4C211.1 118.8 219.7 94.8 219.7 64.5C219.7 37.3 197.7 15 170 10.4Z" fill="#F4A8C6"/>
<path d="M95.9 91.9999L82.7 72.5999L94.9 58.2999H89.5L79.2 70.9999C78.3 72.0999 77.4 73.2999 76.5 74.5999H76.4V58.2999H72V91.9999H76.4V79.0999L79.6 75.3999L90.7 91.9999H95.9Z" fill="#B41F24"/>
<path d="M103.6 58.2999H99.2V91.9999H103.6V58.2999Z" fill="#B41F24"/>
<path d="M129.9 82.8C129.9 77.8 127 75.0999 121.3 72.8999C116.6 71.0999 114.6 69.4999 114.6 66.3999C114.6 64.0999 116.4 61.3 121 61.3C124.1 61.3 126.3 62.2999 127.4 62.8999L128.6 59.3C127.1 58.4 124.6 57.7 121.1 57.7C114.5 57.7 110.2 61.5999 110.2 66.8999C110.2 71.6999 113.6 74.5 119.1 76.5C123.7 78.3 125.5 80 125.5 83.2C125.5 86.6 122.9 89 118.4 89C115.4 89 112.5 88 110.6 86.8L109.5 90.5C111.3 91.7 114.9 92.6 118.1 92.6C126 92.5 129.9 88 129.9 82.8Z" fill="#B41F24"/>
<path d="M145.9 72.8999C141.2 71.0999 139.2 69.4999 139.2 66.3999C139.2 64.0999 141 61.3 145.6 61.3C148.7 61.3 150.9 62.2999 152 62.8999L153.2 59.3C151.7 58.4 149.2 57.7 145.7 57.7C139.1 57.7 134.8 61.5999 134.8 66.8999C134.8 71.6999 138.2 74.5 143.7 76.5C148.3 78.3 150.1 80 150.1 83.2C150.1 86.6 147.5 89 143 89C140 89 137.1 88 135.2 86.8L134.1 90.5C135.9 91.7 139.5 92.6 142.7 92.6C150.7 92.6 154.5 88.0999 154.5 82.8999C154.5 77.7999 151.6 75.0999 145.9 72.8999Z" fill="#B41F24"/>
<path d="M109.8 118.3L103.8 134.6C102.3 138.9 101.1 142.6 100.2 146H100.1C99.2 142.5 98.1 138.8 96.7 134.6L90.9 118.3H85.3L83 152H87.1L88 137.5C88.3 132.4 88.5 126.8 88.6 122.6H88.7C89.6 126.6 91 131 92.6 135.7L98.1 151.8H101.4L107.4 135.4C109.1 130.7 110.5 126.5 111.7 122.6H111.9C111.8 126.8 112.2 132.5 112.4 137.2L113.3 152H117.6L115.5 118.3H109.8Z" fill="#B41F24"/>
<path d="M128.5 136.2H141.6V132.6H128.5V121.9H142.3V118.3H124.1V152H143.1V148.3H128.5V136.2Z" fill="#B41F24"/>
</svg>
