<svg width="232" height="202" viewBox="0 0 232 202" fill="none" xmlns="http://www.w3.org/2000/svg">
<path d="M168.1 4.40002C168 4.40002 168 4.40002 168.1 4.40002C195.7 9.10002 217.8 31.3 217.8 58.6C217.8 88.9 209.2 113 183.3 140.5C157.4 168 124.2 189.4 109.6 189.4C95 189.4 61.8 168.1 35.9 140.5C30 134.2 25 128.2 20.8 122.2C25.9 132.1 32.9 141.9 42.3 151.9C68.6 179.9 103.8 199.5 118.7 199.5C133.6 199.5 167.3 177.8 193.7 149.8C220.1 121.8 228.8 97.3 228.8 66.4C228.7 35.5 200.5 5.10002 168.1 4.40002Z" fill="#7BBC57"/>
<path d="M168 4.40001C164.9 3.90001 161.8 3.59998 158.6 3.49998C126.7 2.79998 120.1 21.9 109.5 21.9C98.9 21.9 92.2 2.79998 60.4 3.49998C28.5 4.19998 1.30005 28.3 1.30005 58.6C1.30005 74.3 3.60002 88.3 9.40002 101.9C12.3 108.7 16 115.4 20.7 122.1C24.9 128.1 29.9 134.2 35.8 140.4C61.7001 167.9 94.9 189.3 109.5 189.3C124.1 189.3 157.3 168 183.2 140.4C209.1 112.8 217.7 88.8 217.7 58.5C217.7 31.3 195.7 9.00001 168 4.40001Z" fill="#B1D99F"/>
<path d="M85.6998 61.0001C85.9998 55.9001 86.1999 50.3 86.2999 46.1H86.3999C87.2999 50.1 88.6999 54.5001 90.2999 59.2001L95.7999 75.3H99.0999L105.1 58.9001C106.8 54.2001 108.2 50 109.4 46.1H109.6C109.6 50.3 109.9 56.0001 110.1 60.7001L111 75.5001H115.3L113.2 41.8H107.7L101.7 58.1C100.2 62.4 98.9998 66.1001 98.1998 69.5001H97.9999C97.1999 66.0001 95.9999 62.3 94.5999 58.1L88.7999 41.8H83.2999L80.8999 75.5001H85.0999L85.6998 61.0001Z" fill="#B41F24"/>
<path d="M129.2 75.4H133.6V61L144.9 41.6H139.9L135 50.9C133.7 53.4 132.5 55.7 131.6 57.9H131.5C130.5 55.5 129.5 53.5 128.1 50.9L123.3 41.6H118.3L129 61V75.4H129.2Z" fill="#B41F24"/>
<path d="M65.2 101.7H60.8V135.4H79.6V131.8H65.2V101.7Z" fill="#B41F24"/>
<path d="M96.0999 101.2C87.0999 101.2 80.3999 108.2 80.3999 118.9C80.3999 129.1 86.6999 136 95.5999 136C104.2 136 111.3 129.8 111.3 118.2C111.3 108.2 105.3 101.2 96.0999 101.2ZM95.8999 132.4C88.9999 132.4 85.0999 125.9 85.0999 118.7C85.0999 111.3 88.6999 104.6 95.8999 104.6C103.2 104.6 106.7 111.6 106.7 118.3C106.7 126.1 102.8 132.4 95.8999 132.4Z" fill="#B41F24"/>
<path d="M130.8 118.4C129.3 122.8 127.9 127.1 126.9 131H126.8C125.9 127 124.6 122.9 123.2 118.4L117.9 101.8H113.2L124.2 135.5H129L141.1 101.8H136.4L130.8 118.4Z" fill="#B41F24"/>
<path d="M149.2 131.8V119.6H162.3V116H149.2V105.4H163V101.7H144.8V135.4H163.8V131.8H149.2Z" fill="#B41F24"/>
</svg>
