<svg width="228" height="202" viewBox="0 0 228 202" fill="none" xmlns="http://www.w3.org/2000/svg">
<path d="M167 4.40001C163.9 3.90001 160.8 3.59998 157.6 3.49998C125.7 2.79998 119.1 21.9 108.5 21.9C97.9 21.9 91.2001 2.79998 59.4001 3.49998C27.5001 4.19998 0.300049 28.3 0.300049 58.6C0.300049 74.3 2.60005 88.3 8.40005 101.9C11.3001 108.7 15.0001 115.4 19.7001 122.1C23.9001 128.1 28.9001 134.2 34.8001 140.4C60.7001 167.9 93.9 189.3 108.5 189.3C123.1 189.3 156.3 168 182.2 140.4C208.1 112.8 216.7 88.8 216.7 58.5C216.7 31.3 194.7 9.00001 167 4.40001Z" fill="#96BFE6"/>
<path d="M75.1 70.2999H70.1L65.5 78.2C64.2 80.4 63.4 81.9 62.4 83.9H62.3C61.4 82.1 60.4 80.4 59.2 78.2L54.7 70.2999H49.6L59.5 86.9999L49.3 104H54.3L58.4 96.5999C60.2 93.5999 61.1 91.8 62 89.9H62.1C63.2 91.9 64.3 93.6999 66 96.5999L70.3 104.1H75.4L64.9 86.7999L75.1 70.2999Z" fill="#B41F24"/>
<path d="M92.6002 69.7C83.6002 69.7 76.9001 76.7 76.9001 87.4C76.9001 97.6 83.2002 104.5 92.1002 104.5C100.7 104.5 107.8 98.3 107.8 86.7C107.7 76.8 101.8 69.7 92.6002 69.7ZM92.3001 101C85.4001 101 81.5001 94.4999 81.5001 87.2999C81.5001 79.8999 85.1001 73.2 92.3001 73.2C99.6001 73.2 103.1 80.2 103.1 86.9C103.1 94.6 99.2001 101 92.3001 101Z" fill="#B41F24"/>
<path d="M135.3 70.2999H130.3L125.7 78.2C124.4 80.4 123.6 81.9 122.6 83.9H122.5C121.6 82.1 120.6 80.4 119.4 78.2L114.9 70.2999H109.8L119.7 86.9999L109.5 104H114.5L118.6 96.5999C120.4 93.5999 121.3 91.8 122.2 89.9H122.3C123.4 91.9 124.5 93.6999 126.2 96.5999L130.5 104.1H135.6L125 86.7L135.3 70.2999Z" fill="#B41F24"/>
<path d="M152.8 69.7C143.8 69.7 137.1 76.7 137.1 87.4C137.1 97.6 143.4 104.5 152.3 104.5C160.9 104.5 168 98.3 168 86.7C167.9 76.8 162 69.7 152.8 69.7ZM152.5 101C145.6 101 141.7 94.4999 141.7 87.2999C141.7 79.8999 145.3 73.2 152.5 73.2C159.8 73.2 163.3 80.2 163.3 86.9C163.3 94.6 159.4 101 152.5 101Z" fill="#B41F24"/>
</svg>
